<?xml version="1.0" standalone="no"?>
<!DOCTYPE svg PUBLIC "-//W3C//DTD SVG 1.1//EN" "http://www.w3.org/Graphics/SVG/1.1/DTD/svg11.dtd" >
<svg xmlns="http://www.w3.org/2000/svg">
<metadata></metadata>
<defs>
<font id="nordiaklight" horiz-adv-x="1294" >
<font-face units-per-em="2048" ascent="1536" descent="-512" />
<missing-glyph horiz-adv-x="573" />
<glyph unicode="&#xfb01;" horiz-adv-x="1099" d="M84 932v92h180v55q0 113 17.5 197t58 152t113.5 106.5t178 46.5v-106q-61 -5 -105 -27t-72.5 -58.5t-45 -92.5t-23 -121t-6.5 -152h512v-1024h-115v932h-399v-932h-113v932h-180z" />
<glyph unicode="&#xfb02;" horiz-adv-x="1089" d="M84 932v92h180v55q0 504 457 504h160v-1583h-117v932h-387v-932h-115v932h-178zM379 1024h385v461q-114 0 -188 -25t-118 -83t-61.5 -141.5t-17.5 -211.5z" />
<glyph horiz-adv-x="0" />
<glyph horiz-adv-x="682" />
<glyph horiz-adv-x="0" />
<glyph horiz-adv-x="0" />
<glyph unicode="&#xd;" horiz-adv-x="1171" />
<glyph unicode=" "  horiz-adv-x="573" />
<glyph unicode="&#x09;" horiz-adv-x="573" />
<glyph unicode="&#xa0;" horiz-adv-x="573" />
<glyph unicode="!" horiz-adv-x="446" d="M127 59q0 38 25.5 64.5t60.5 26.5q40 0 65 -26t25 -65q0 -36 -25 -61t-65 -25q-35 0 -60.5 25.5t-25.5 60.5zM152 434v1004h118v-1004h-118z" />
<glyph unicode="&#x22;" horiz-adv-x="645" d="M106 1210l54 416l100 -41q-15 -69 -41.5 -202t-42.5 -209zM340 1210l53 416l101 -41q-15 -69 -41.5 -202t-42.5 -209z" />
<glyph unicode="#" horiz-adv-x="1636" d="M127 406v88l324 -2l43 391h-316v90l326 -2l47 420h104l-47 -420h387l47 420h105l-47 -420h348v-90h-358l-43 -389h352v-89h-363l-45 -403h-104l45 403l-387 3l-45 -406h-105l45 406h-313zM555 492h387l43 389l-387 2z" />
<glyph unicode="$" horiz-adv-x="1175" d="M84 147l78 78q38 -36 90 -69q113 -72 192 -74q119 -8 214.5 66t107.5 196q3 48 -5 89.5t-21.5 73t-42.5 63.5t-52 52t-67.5 46.5t-71.5 41t-80 40.5q-165 82 -232 167t-55 222q8 102 86.5 191t204.5 120v238h125v-228h27q129 -8 215 -74l-88 -90q-70 49 -164 56 q-98 5 -185 -63.5t-94 -170.5q-4 -44 11 -83t39.5 -65.5t63 -52.5t71 -42t75.5 -37.5t66 -34.5q81 -46 139 -96t90.5 -94.5t50 -95t21 -91t0.5 -88.5q-14 -85 -54.5 -157.5t-114 -126.5t-169.5 -70v-271h-125v264h-10q-69 6 -131.5 28t-103.5 51.5t-65 51.5t-36 39z" />
<glyph unicode="%" horiz-adv-x="1409" d="M106 -106l938 1613h113l-938 -1613h-113zM121 1108q0 142 54.5 228.5t160.5 86.5q112 0 165.5 -85.5t53.5 -229.5q0 -139 -56.5 -228t-162.5 -89q-104 0 -159.5 89t-55.5 228zM195 1108q0 -100 36 -173t105 -73q70 0 105.5 72.5t35.5 173.5q0 98 -38 172t-103 74 t-103 -74t-38 -172zM762 297q0 142 54.5 228.5t160.5 86.5q112 0 165.5 -85.5t53.5 -229.5q0 -139 -56.5 -228t-162.5 -89q-104 0 -159.5 89t-55.5 228zM836 297q0 -100 36 -173t105 -73q70 0 105.5 72.5t35.5 173.5q0 98 -38 172t-103 74t-103 -74t-38 -172z" />
<glyph unicode="&#x26;" horiz-adv-x="1468" d="M127 371q0 136 88 239q42 49 90 80q10 8 32 22.5t28 18.5l114 78l-57 70q-42 42 -60 75q-57 90 -57 199q0 44 14 86t46.5 84t97.5 68t155 26q75 0 137 -27t99 -70.5t56.5 -92.5t19.5 -97q0 -80 -60 -155q-36 -46 -59 -64l2 2l-160 -122l172 -205l156 -189q14 16 61 64 t66 69l82 -86l-131 -139l139 -166q53 -66 115 -135h-162l-174 207l-88 -88q-34 -37 -94 -76q-120 -74 -252 -74q-118 0 -214 55.5t-149 146.5t-53 196zM252 362q0 -118 95 -200t202 -82q83 0 180 65q33 20 82 66l88 96l-344 410l-154 -111q-38 -21 -75 -61q-74 -78 -74 -183 zM434 1153q0 -93 141 -268q42 23 127 82l11 8q22 16 32 24.5t28.5 29.5t27 49t8.5 63q0 48 -20 84.5t-51 55.5t-61.5 27.5t-58.5 8.5q-29 0 -57 -6.5t-59 -23t-49.5 -51t-18.5 -83.5z" />
<glyph unicode="'" horiz-adv-x="358" d="M84 1397h96l-14 -334h-66z" />
<glyph unicode="(" horiz-adv-x="700" d="M127 512q0 112 29 246t70 246.5t82.5 207t70.5 150.5t29 53l118 -2q-74 -146 -141 -315q-139 -353 -139 -586q0 -143 30 -292t78.5 -273t89 -207.5t82.5 -153.5h-116q-85 128 -142 262q-141 321 -141 664z" />
<glyph unicode=")" horiz-adv-x="700" d="M147 -414q42 70 82.5 153.5t89.5 207.5t79 273t30 292q0 227 -141 586q-59 151 -140 315l119 2q0 3 29 -53t70 -150.5t82.5 -207t70.5 -246.5t29 -246q0 -343 -141 -664q-59 -132 -142 -262h-117z" />
<glyph unicode="*" horiz-adv-x="913" d="M127 1292l23 88l264 -94l-19 260h90l-16 -260l258 96l25 -88l-277 -57l203 -242l-27 -20q-10 -10 -45 -35l-168 254l-168 -256l-71 57l202 242z" />
<glyph unicode="+" horiz-adv-x="1247" d="M84 473v96h448v473h111v-473h449v-96h-449v-496h-111v496h-448z" />
<glyph unicode="," horiz-adv-x="571" d="M84 -240l172 473q18 -7 67 -21t64 -22q-40 -83 -113.5 -231t-111.5 -227q-10 4 -28 9.5t-31 10t-19 8.5z" />
<glyph unicode="-" horiz-adv-x="729" d="M147 481v90h365v-90h-365z" />
<glyph unicode="." horiz-adv-x="448" d="M84 70q0 41 26.5 67.5t67.5 26.5t67.5 -26.5t26.5 -67.5q0 -39 -27 -67t-67 -28t-67 28t-27 67z" />
<glyph unicode="/" horiz-adv-x="1181" d="M94 2l727 1417h133q-147 -291 -411 -803.5t-316 -613.5h-133z" />
<glyph unicode="0" horiz-adv-x="1257" d="M84 705q0 157 30.5 286t90.5 226.5t157 151.5t224 54q132 0 232 -54t160.5 -152t90 -226.5t29.5 -285.5q0 -154 -32 -285t-94.5 -230.5t-161 -156t-224.5 -56.5q-125 0 -222 56t-157.5 156t-91.5 230.5t-31 285.5zM217 705q0 -175 39.5 -310t125 -218t208.5 -83 q100 0 174.5 47t117 132t63 192.5t20.5 239.5q0 171 -41.5 305.5t-128 215.5t-205.5 81t-205 -81.5t-127 -215.5t-41 -305z" />
<glyph unicode="1" horiz-adv-x="591" d="M41 1282l20 111h361v-1393h-127v1282h-254z" />
<glyph unicode="2" horiz-adv-x="1110" d="M109 0v115l2 2q1 1 1 1.5t1 2t4 4.5q51 54 152.5 176t219 270.5t207.5 285t99 192.5q17 119 -56 190.5t-219 71.5q-73 0 -126 -18t-80 -47.5t-39 -55.5t-17 -55h-125q5 39 19 75t44 75t72.5 68t110.5 47.5t153 18.5q180 0 289 -100t109 -250q0 -128 -330 -557 q-133 -173 -330 -399h684v-113h-845z" />
<glyph unicode="3" horiz-adv-x="1083" d="M127 328h135q13 -112 92 -176t199 -64q99 0 188.5 83.5t89.5 195.5q0 66 -19.5 118.5t-48 85.5t-68.5 56.5t-74.5 34.5t-71.5 16v115q33 3 64.5 12t66.5 30t61 50t43 77t17 107q0 94 -81 170t-179 76q-109 0 -180 -58t-85 -147h-110q0 31 9.5 67.5t36 80.5t66.5 79.5 t108 59.5t153 24q83 0 156 -32t121 -83t76 -113.5t28 -123.5q0 -77 -20.5 -139t-46.5 -95.5t-60.5 -58t-51.5 -31t-32 -10.5q6 0 29.5 -9t61.5 -35.5t72.5 -65t60 -107t25.5 -151.5q0 -64 -30.5 -133t-82.5 -127.5t-130.5 -96t-165.5 -37.5q-88 0 -165 32t-129 84t-85 114 t-43 125z" />
<glyph unicode="4" horiz-adv-x="1048" d="M41 272v129q109 184 308 515t284 473q45 0 139 4v-1008h111v-113h-111v-272h-119v272h-612zM158 385h495v819z" />
<glyph unicode="5" horiz-adv-x="1175" d="M127 336h133q17 -117 112 -183.5t228 -66.5q139 0 238.5 101t99.5 241q0 138 -106.5 245t-256.5 107q-79 0 -139 -19t-133 -67q-10 2 -10.5 2t-7 1.5t-8 2.5t-12 5t-20.5 8t-32 12t-47 18l110 650h639v-111h-532l-82 -461q32 23 74 37q106 39 225 39q121 0 228.5 -62 t173 -170.5t65.5 -236.5q0 -188 -135.5 -320.5t-331.5 -132.5q-192 0 -324 96t-149 265z" />
<glyph unicode="6" horiz-adv-x="1148" d="M106 399q0 111 52 205l387 787h137l-295 -603l43 19q70 18 123 18q188 0 317 -121.5t129 -304.5t-129 -304.5t-317 -121.5q-122 0 -224.5 54.5t-162.5 153t-60 218.5zM238 401q0 -129 92.5 -221t222.5 -92q128 0 221.5 92.5t93.5 220.5t-93.5 220t-221.5 92 q-130 0 -222.5 -91.5t-92.5 -220.5z" />
<glyph unicode="7" horiz-adv-x="948" d="M106 1280v113h744v-136l-502 -1257h-133l516 1280h-625z" />
<glyph unicode="8" horiz-adv-x="1148" d="M127 385q0 106 62.5 202t170.5 165q-84 68 -132 149.5t-48 165.5q0 149 109 252.5t262 103.5q156 0 266.5 -103.5t110.5 -252.5q0 -85 -48.5 -166.5t-136.5 -148.5q111 -67 173.5 -162.5t62.5 -204.5q0 -177 -124 -294.5t-304 -117.5q-176 0 -300 118t-124 294zM260 381 q0 -121 87 -209t204 -88q121 0 208 87.5t87 209.5q0 121 -87 209t-208 88q-117 0 -204 -88.5t-87 -208.5zM305 1067q0 -94 64 -165t157 -83h49q95 12 159.5 83t64.5 165q0 98 -74.5 171t-173.5 73q-100 0 -173 -73t-73 -171z" />
<glyph unicode="9" horiz-adv-x="1179" d="M106 989q0 183 129.5 304.5t317.5 121.5q122 0 224 -54.5t162 -153t60 -218.5q0 -113 -51 -205l-387 -786h-137l295 602l-43 -18q-59 -19 -123 -19q-188 0 -317.5 121.5t-129.5 304.5zM238 987q0 -129 92 -220t223 -91q128 0 221.5 91.5t93.5 219.5t-93.5 220.5 t-221.5 92.5q-130 0 -222.5 -92t-92.5 -221z" />
<glyph unicode=":" horiz-adv-x="448" d="M84 70q0 41 26.5 67.5t67.5 26.5t67.5 -26.5t26.5 -67.5q0 -39 -27 -67t-67 -28t-67 28t-27 67zM84 918q0 39 26.5 66.5t67.5 27.5t67.5 -27.5t26.5 -66.5q0 -41 -26.5 -68t-67.5 -27t-67.5 27t-26.5 68z" />
<glyph unicode=";" horiz-adv-x="598" d="M84 -240l172 473q18 -7 67 -21t64 -22q-40 -83 -113.5 -231t-111.5 -227q-10 4 -28 9.5t-31 10t-19 8.5zM225 915q0 39 28 66t69 27q38 0 65 -27.5t27 -65.5q0 -41 -26.5 -67.5t-65.5 -26.5q-42 0 -69.5 26.5t-27.5 67.5z" />
<glyph unicode="&#x3c;" horiz-adv-x="1249" d="M147 555v139q143 79 445.5 238.5t454.5 243.5v-111l-820 -444q144 -79 432.5 -233.5t387.5 -207.5v-106q-157 87 -449.5 240.5t-450.5 240.5z" />
<glyph unicode="=" horiz-adv-x="1251" d="M147 356v90h879v-90h-879zM147 797v90h879v-90h-879z" />
<glyph unicode="&#x3e;" horiz-adv-x="1249" d="M147 74v106q99 53 387.5 207.5t432.5 233.5l-820 444v111q152 -84 454.5 -243.5t445.5 -238.5v-139q-157 -87 -450 -240.5t-450 -240.5z" />
<glyph unicode="?" horiz-adv-x="1011" d="M147 1374l74 31q104 31 182 31q162 0 268.5 -96.5t106.5 -268.5q0 -117 -55 -213.5t-172 -200.5q-4 -4 -13 -12q-70 -66 -93 -103q-49 -77 -54 -239v-6h-106q0 126 34 223.5t117 171.5q117 101 172.5 190t55.5 191q0 119 -72.5 186.5t-190.5 67.5q-73 0 -143 -24 q-19 -5 -72 -23zM246 68q0 35 25.5 60.5t60.5 25.5q40 0 65 -25t25 -61q0 -39 -25 -65t-65 -26q-35 0 -60.5 26.5t-25.5 64.5z" />
<glyph unicode="@" horiz-adv-x="1691" d="M84 713q0 218 95 383.5t266.5 254.5t394.5 89q331 0 533 -200.5t202 -526.5q0 -197 -92.5 -329t-231.5 -132q-57 0 -99.5 21t-62.5 52t-29 57.5t-9 47.5v80q-26 -45 -64 -80q-84 -80 -209 -80q-148 0 -254 107.5t-106 259.5q0 155 106 264t254 109q123 0 209 -82 q38 -38 64 -80v135h79v-596q0 -150 125 -150q25 0 55 11t64.5 40.5t62 72t46 114t18.5 158.5q0 134 -44 253t-126 209t-209 142.5t-282 52.5q-131 0 -242.5 -36.5t-190 -99.5t-134.5 -147t-82.5 -179.5t-26.5 -196.5q0 -97 26 -191.5t81.5 -182t134 -153.5t191 -105.5 t245.5 -39.5q117 0 250 45q54 19 110 45l27 -76q-56 -22 -127 -45q-138 -43 -258 -43q-143 0 -266.5 40.5t-213 112t-153.5 166t-95.5 204t-31.5 225.5zM500 719q0 -130 76 -217.5t198 -87.5q125 0 201 87t76 218q0 129 -76.5 217t-200.5 88q-122 0 -198 -88t-76 -217z" />
<glyph unicode="A" horiz-adv-x="1372" d="M47 0q105 282 287 771.5t248 666.5h155l537 -1438h-125l-109 283h-759l-107 -283h-127zM326 393h671l-340 924z" />
<glyph unicode="B" horiz-adv-x="1150" d="M127 0q0 21 1 560.5t1 877.5h377q168 0 272.5 -95.5t104.5 -269.5q0 -157 -125 -295q121 -58 188.5 -153.5t67.5 -216.5q0 -175 -110 -291.5t-286 -116.5h-491zM250 111h383q109 0 185.5 84.5t76.5 212.5q0 130 -75 205t-187 75h-383v-577zM250 799h287q102 0 158.5 74 t56.5 200q0 124 -67 189t-175 65h-260v-528z" />
<glyph unicode="C" horiz-adv-x="1282" d="M74 719q0 206 97.5 377t267 269.5t374.5 98.5q183 0 336 -78v-137q-143 94 -340 94q-173 0 -311.5 -82.5t-215.5 -225t-77 -316.5q0 -172 77 -314t216 -225.5t311 -83.5q197 0 340 94v-137q-78 -31 -107 -39q-107 -39 -229 -39q-153 0 -290.5 58t-235.5 157t-155.5 237 t-57.5 292z" />
<glyph unicode="D" horiz-adv-x="1339" d="M127 0v1440l350 -2q105 0 209 -29t199 -89.5t168.5 -144t117 -202t43.5 -254.5q0 -141 -43 -260.5t-115 -202.5t-167.5 -142t-199.5 -86.5t-212 -27.5h-350zM250 111h205q100 0 193 25.5t171.5 76.5t137 123t91.5 170t33 211q0 116 -33 215.5t-91 171t-137 122.5 t-171.5 76t-193.5 25h-205v-1216z" />
<glyph unicode="E" horiz-adv-x="1085" d="M127 0v1438h801v-113h-678v-500h633v-110h-633v-604h678v-111h-801z" />
<glyph unicode="F" horiz-adv-x="1038" d="M127 0v1440h778v-113h-655v-502h608v-110h-608v-715h-123z" />
<glyph unicode="G" horiz-adv-x="1615" d="M74 719q0 206 98 377t268 269.5t375 98.5q142 0 272 -51t232 -139l-70 -103q-167 179 -438 179q-174 0 -313 -84.5t-215 -228.5t-76 -318q0 -170 80.5 -315t216.5 -229.5t295 -84.5q236 0 376 136.5t173 371.5h-347v109h480v-29q-3 -199 -85 -358t-236.5 -252t-356.5 -93 q-146 0 -280.5 59t-232.5 158.5t-157 237.5t-59 289z" />
<glyph unicode="H" horiz-adv-x="1325" d="M127 0v1440h123v-613h776v613h123v-1440h-123v715h-776v-715h-123z" />
<glyph unicode="I" horiz-adv-x="391" d="M127 0v1440h123v-1440h-123z" />
<glyph unicode="J" horiz-adv-x="804" d="M84 29l49 98l51 -18q59 -19 99 -19q48 0 85.5 11.5t62.5 29t43 49t27.5 61.5t14.5 77t6.5 84.5t1.5 95.5v942h123v-1034q0 -77 -10.5 -139.5t-36 -118t-66 -93t-104.5 -59t-147 -21.5q-98 0 -199 54z" />
<glyph unicode="K" horiz-adv-x="1320" d="M127 0v1440h123v-805q47 62 184.5 233.5t202.5 255.5l248 314h149l-485 -615q79 -107 300.5 -387t348.5 -436h-160l-573 721l-215 -272v-449h-123z" />
<glyph unicode="L" horiz-adv-x="942" d="M127 0v1440h123v-1329h584v-111h-707z" />
<glyph unicode="M" horiz-adv-x="1757" d="M127 0v1440h211l508 -1334l506 1334h211v-1440h-123v1327l-516 -1325h-156l-518 1325v-1327h-123z" />
<glyph unicode="N" horiz-adv-x="1425" d="M127 0v1438h172l823 -1301v1301h123v-1438h-172l-823 1290v-1290h-123z" />
<glyph unicode="O" horiz-adv-x="1695" d="M74 719q0 151 60 289.5t160 238t236.5 158.5t284.5 59q199 0 370 -99.5t272.5 -271.5t101.5 -374q0 -151 -60 -289.5t-160.5 -237.5t-237.5 -158t-286 -59q-148 0 -284.5 59t-236.5 158t-160 237.5t-60 289.5zM205 719q0 -175 80 -319t220.5 -227t311.5 -83q173 0 314 83 t220 227t79 319q0 178 -79.5 322.5t-220 226.5t-313.5 82q-172 0 -312 -82t-220 -227t-80 -322z" />
<glyph unicode="P" horiz-adv-x="1114" d="M127 2v1438h410h14q63 0 127 -16q71 -18 135 -55t113.5 -90t78.5 -127t29 -159q0 -109 -46 -198t-119.5 -142t-159 -81.5t-172.5 -28.5h-287v-541h-123zM250 653h260q110 0 197.5 35.5t142.5 113t55 185.5q0 165 -112.5 253.5t-282.5 88.5h-260v-676z" />
<glyph unicode="Q" horiz-adv-x="1705" d="M74 721q0 151 60 289.5t160 238t236.5 158.5t284.5 59q199 0 370 -99.5t272.5 -271.5t101.5 -374q0 -178 -89 -357t-251 -272h315v-115h-719q-148 0 -284.5 59t-236.5 158t-160 237.5t-60 289.5zM207 721q0 -175 79 -319t219 -227t312 -83h25q165 5 299 89.5t209 226.5 t75 313q0 178 -78 322.5t-217.5 226.5t-312.5 82q-172 0 -312 -82t-219 -226.5t-79 -322.5z" />
<glyph unicode="R" horiz-adv-x="1206" d="M147 0v1440h410h11q84 0 166 -27q88 -29 159.5 -83.5t116.5 -142.5t45 -194q0 -159 -89 -267t-225 -153l289 -573h-141l-283 545q-16 -2 -49 -2h-287v-543h-123zM270 653h260q110 0 197.5 35.5t143 113t55.5 185.5q0 84 -31.5 150.5t-86.5 107.5t-126 62.5t-152 21.5 h-260v-676z" />
<glyph unicode="S" horiz-adv-x="1024" d="M84 147l78 78q38 -36 90 -69q113 -72 192 -74q12 -1 23 -1q105 0 191 67q96 74 108 196q1 13 1 26q0 34 -6 64q-8 42 -21.5 73t-42.5 63t-52 52t-67.5 46.5t-71.5 41t-80 40.5q-165 82 -232 167q-57 72 -57 182q0 20 2 40q6 62 38 121t86 108q53 48 137 74q64 20 137 20 q22 0 45 -2q129 -8 215 -74l-88 -90q-70 49 -164 56h-13q-91 0 -172 -64q-87 -68 -94 -170q-1 -9 -1 -18q0 -34 12 -65q15 -39 39.5 -65.5t63 -52.5t71 -42t75.5 -37.5t66 -34.5q81 -46 139 -96t90.5 -94.5t50.5 -94.5q16 -52 20 -92q2 -22 3 -45q0 -21 -2 -43 q-22 -163 -149 -270q-110 -93 -274 -93q-24 0 -50 2q-69 6 -131.5 28t-103.5 51.5t-65 51.5t-36 39z" />
<glyph unicode="T" horiz-adv-x="1073" d="M31 1329v111h970v-111h-423v-1329h-125v1329h-422z" />
<glyph unicode="U" horiz-adv-x="1380" d="M117 434v1006h131v-1004q0 -142 113.5 -242t279.5 -100q98 0 196.5 44.5t165 124t66.5 169.5v1008h133v-1440h-129v193q-47 -62 -112 -109q-147 -109 -326 -109q-113 0 -210.5 36.5t-164.5 99t-105 146.5t-38 177z" />
<glyph unicode="V" horiz-adv-x="1318" d="M37 1438h127l475 -1317q0 3 84 243.5t197 561t182 512.5h127l-322 -908q-18 -51 -188 -530h-162z" />
<glyph unicode="W" horiz-adv-x="2068" d="M41 1440h127l348 -1342l395 1340h166l400 -1340q47 188 133 520q86 339 213 822h127l-377 -1440h-193l-385 1303l-385 -1303h-188z" />
<glyph unicode="X" horiz-adv-x="1419" d="M84 0l522 774l-446 666h147l375 -555q51 73 116 169.5t142.5 212.5t116.5 173h149l-448 -666l524 -774h-152l-448 664q-44 -65 -137 -203t-170.5 -253.5t-138.5 -207.5h-152z" />
<glyph unicode="Y" horiz-adv-x="1255" d="M20 1438h138l444 -840l449 840h137l-522 -963v-475h-125v475z" />
<glyph unicode="Z" d="M106 0v139l873 1188h-807v111h936v-140l-870 -1187h901v-111h-1033z" />
<glyph unicode="[" horiz-adv-x="669" d="M127 -410v1852q71 0 194 1t187 1v-92h-272v-1669h272v-93h-381z" />
<glyph unicode="\" horiz-adv-x="1181" d="M84 1419h147l727 -1417h-149q-122 240 -362.5 708.5t-362.5 708.5z" />
<glyph unicode="]" horiz-adv-x="669" d="M127 -317h272v1669h-272v92h377q0 -317 2 -928.5t2 -925.5h-381v93z" />
<glyph unicode="^" horiz-adv-x="718" d="M127 1575q41 48 111.5 130t113.5 134q47 -57 124.5 -153.5t88.5 -110.5h-76l-135 178l-145 -178h-82z" />
<glyph unicode="_" horiz-adv-x="1308" d="M84 -190h1075v-48h-1075v48z" />
<glyph unicode="`" horiz-adv-x="559" d="M127 1452h131l154 -225h-88z" />
<glyph unicode="a" horiz-adv-x="1224" d="M63 498q0 233 139.5 380.5t360.5 147.5q186 0 307 -113q58 -54 82 -110v198h115v-1001h-115v203q-24 -57 -82 -115q-117 -113 -307 -113q-220 0 -360 147.5t-140 375.5zM190 502q0 -182 105.5 -303t275.5 -121q160 0 261.5 104.5t119.5 268.5v102q-18 161 -120 266 t-261 105q-170 0 -275.5 -120.5t-105.5 -301.5z" />
<glyph unicode="b" horiz-adv-x="1224" d="M111 0v1579h114v-776q24 56 82 110q121 113 307 113q221 0 360.5 -147.5t139.5 -380.5q0 -228 -139.5 -374.5t-360.5 -146.5q-190 0 -307 113q-57 54 -82 113v-203h-114zM225 451q18 -164 119.5 -268.5t261.5 -104.5q170 0 275.5 121t105.5 303q0 181 -105.5 301.5 t-275.5 120.5q-159 0 -261 -105t-120 -266v-102z" />
<glyph unicode="c" horiz-adv-x="894" d="M63 502q0 149 72.5 269.5t196.5 186.5t274 66q57 0 129 -14l43 -15v-110l-37 18q-64 19 -131 19q-173 0 -297.5 -123t-124.5 -299q0 -113 57.5 -210t154.5 -154.5t210 -57.5q59 0 121 16l47 19v-111q-98 -25 -172 -25q-150 0 -274 67t-196.5 187.5t-72.5 270.5z" />
<glyph unicode="d" horiz-adv-x="1224" d="M63 498q0 233 139.5 379.5t360.5 146.5q188 0 307 -111q58 -54 82 -110v778h115v-1581h-115v203q-24 -57 -82 -115q-117 -113 -307 -113q-220 0 -360 147.5t-140 375.5zM190 502q0 -182 105.5 -303t275.5 -121q160 0 261.5 104.5t119.5 268.5v102q-18 161 -120 266 t-261 105q-170 0 -275.5 -120.5t-105.5 -301.5z" />
<glyph unicode="e" horiz-adv-x="1087" d="M63 510q0 244 124 381t335 137q215 0 333 -139t118 -387v-13h-795q0 -103 42.5 -194.5t129 -152t199.5 -60.5q82 0 163 29t136 65l53 -84q-43 -32 -104 -57q-123 -58 -265 -58q-92 0 -177 37.5t-150 105t-103.5 169t-38.5 221.5zM184 590h670q0 152 -102 244t-236 92 q-60 0 -118 -21.5t-106.5 -61.5t-78 -106t-29.5 -147z" />
<glyph unicode="f" horiz-adv-x="620" d="M20 901v100h173v76q0 113 19 198.5t61.5 152.5t117 106t180.5 47v-106q-76 -6 -126.5 -35.5t-78 -85t-38.5 -125.5t-11 -170v-58h271v-100h-271v-901h-118q-2 113 -2 330q0 96 -1 294t-1 277h-175z" />
<glyph unicode="g" horiz-adv-x="1224" d="M63 498q0 232 144 380t366 148q170 0 289 -111q50 -47 86 -108v194h119v-1050q0 -218 -132.5 -363t-352.5 -145q-87 0 -163.5 29.5t-126.5 72.5t-89.5 96.5t-58.5 95t-27 73.5h116q36 -76 86 -132q113 -131 265 -131q160 0 262 112.5t102 309.5v230q-34 -64 -86 -113 q-119 -111 -289 -111q-221 0 -365.5 148t-144.5 375zM188 502q0 -182 104.5 -303t274.5 -121q160 0 261.5 104.5t119.5 268.5v102q-18 161 -120 266t-261 105q-170 0 -274.5 -120.5t-104.5 -301.5z" />
<glyph unicode="h" horiz-adv-x="1155" d="M106 0v1579h121v-733q26 45 84 90q113 90 293 90q197 0 299.5 -113.5t102.5 -324.5q0 -98 -1 -293.5t-1 -294.5h-121v561q0 354 -328 354q-41 0 -84.5 -11t-87.5 -37.5t-78.5 -64.5t-56 -97t-21.5 -130v-575h-121z" />
<glyph unicode="i" horiz-adv-x="419" d="M106 1389q0 41 28.5 68.5t70.5 27.5q41 0 67.5 -27.5t26.5 -68.5t-26.5 -67t-67.5 -26q-42 0 -70.5 26t-28.5 67zM135 0v1001h121v-1001h-121z" />
<glyph unicode="j" horiz-adv-x="430" d="M111 1389q0 41 28.5 68.5t69.5 27.5t67.5 -27.5t26.5 -68.5t-26.5 -67t-67.5 -26q-42 0 -70 26t-28 67zM137 -555v1556h121v-1556h-121z" />
<glyph unicode="k" horiz-adv-x="1153" d="M111 0v1579h118v-999l508 421h162l-367 -319l537 -682h-147l-484 604l-209 -184v-420h-118z" />
<glyph unicode="l" horiz-adv-x="352" d="M111 0v1579h118v-1579h-118z" />
<glyph unicode="m" horiz-adv-x="1867" d="M111 0v1001h116v-163q26 50 80 92q114 94 285 94q67 0 124.5 -19t93.5 -47t61.5 -59.5t35.5 -55.5t8 -36q43 94 152.5 155.5t253.5 61.5q169 0 267 -115.5t98 -320.5q0 -98 -1.5 -294t-1.5 -294h-120v565q0 189 -76 271t-215 82q-57 0 -110 -19t-100 -58t-75.5 -110.5 t-28.5 -165.5v-565h-120v565q0 353 -291 353q-44 0 -85.5 -9.5t-81.5 -32.5t-71 -56.5t-53 -85.5t-29 -116v-618h-116z" />
<glyph unicode="n" horiz-adv-x="1163" d="M111 0v1001h120v-155q26 45 84 90q113 90 293 90q190 0 296 -115t106 -323q0 -98 -1 -293.5t-1 -294.5h-121v565q0 355 -328 355q-41 0 -84.5 -11t-87.5 -37.5t-78.5 -64.5t-56 -97t-21.5 -130v-580h-120z" />
<glyph unicode="o" horiz-adv-x="1263" d="M63 506q0 227 154 375.5t383 148.5q150 0 276 -66.5t201.5 -187.5t75.5 -270q0 -152 -75.5 -274.5t-201.5 -189.5t-276 -67q-229 0 -383 150t-154 381zM186 504q0 -174 124 -299t296 -125q175 0 299.5 124.5t124.5 299.5q0 176 -124.5 299t-299.5 123q-173 0 -296.5 -123 t-123.5 -299z" />
<glyph unicode="p" horiz-adv-x="1224" d="M111 -575v1574h114v-198q23 53 82 112q121 113 307 113q221 0 360.5 -146t139.5 -374q0 -233 -139.5 -381t-360.5 -148q-188 0 -307 111q-57 54 -82 113v-776h-114zM225 451q18 -163 120 -268t261 -105q113 0 200.5 57.5t134 153.5t46.5 213q0 182 -105.5 303t-275.5 121 q-160 0 -261.5 -104.5t-119.5 -268.5v-102z" />
<glyph unicode="q" horiz-adv-x="1224" d="M63 502q0 228 140 375t360 147q188 0 307 -115q59 -59 82 -112v204h115v-1581h-115v777q-25 -59 -82 -113q-119 -111 -307 -111q-221 0 -360.5 148t-139.5 381zM190 498q0 -117 46.5 -213t134 -153.5t200.5 -57.5q159 0 261 105t120 267v103q-18 164 -119.5 268.5 t-261.5 104.5q-170 0 -275.5 -121t-105.5 -303z" />
<glyph unicode="r" horiz-adv-x="663" d="M106 0v1001h121v-165q85 118 188 160q72 29 159 29q38 0 79 -5l-26 -125q-45 10 -78 10q-147 -5 -231.5 -89t-90.5 -257v-559h-121z" />
<glyph unicode="s" horiz-adv-x="772" d="M74 109l73 63q32 -32 60 -49q76 -49 155 -49q14 0 30.5 2t46.5 12t52.5 27.5t40 53t17.5 83.5q0 58 -50 111.5t-188 132.5q-56 30 -95 59.5t-61 55.5t-34 56.5t-15.5 55t-3.5 59.5q0 54 27.5 108t88.5 94t142 40q93 0 170 -35q32 -16 52 -33q-3 -10 -27 -49 q-3 -8 -27 -41q-21 18 -41 29q-56 29 -122 29q-19 0 -40.5 -6t-47 -20.5t-42 -46.5t-16.5 -77q0 -38 16 -70t50 -60.5t63.5 -48t81.5 -50.5t80 -49q149 -98 149 -248q0 -34 -9.5 -70t-32 -72.5t-55 -64.5t-83 -46t-112.5 -18q-130 0 -224 66q-41 28 -69 66z" />
<glyph unicode="t" horiz-adv-x="550" d="M72 901v100h112v328h121v-328h176v-100h-176v-901h-121v901h-112z" />
<glyph unicode="u" horiz-adv-x="1140" d="M88 420q0 98 1 292.5t1 288.5h119v-559q0 -356 332 -356q47 0 91 9.5t88 35t76.5 64.5t53 102.5t20.5 144.5v559h121v-1001h-121v150q-35 -51 -86 -87q-118 -86 -284 -86q-201 0 -306.5 120.5t-105.5 322.5z" />
<glyph unicode="v" horiz-adv-x="966" d="M20 1001h119l320 -890q33 91 147 416t170 474h123l-360 -1001h-156z" />
<glyph unicode="w" horiz-adv-x="1718" d="M59 1001h121l297 -874l289 874h152l288 -878q154 462 297 878h123q-235 -687 -344 -1001h-156l-284 856q-44 -139 -152.5 -463.5t-130.5 -392.5h-158z" />
<glyph unicode="x" horiz-adv-x="1040" d="M20 0l410 543l-346 458h141l275 -366l276 366h142l-347 -458l410 -543h-141l-340 449l-338 -449h-142z" />
<glyph unicode="y" horiz-adv-x="1083" d="M12 1001h133l377 -880l342 880h131l-626 -1576h-133l219 561z" />
<glyph unicode="z" horiz-adv-x="1081" d="M84 0v123l717 778h-672v100h805v-116l-721 -785h743v-100h-872z" />
<glyph unicode="{" horiz-adv-x="829" d="M127 512v57q106 11 147 72t41 172v379q-2 56 7.5 100.5t25.5 74t44 50.5t55 32t67.5 17t71 7.5t76.5 1.5v-72q-58 -2 -100 -10t-68.5 -23t-42 -30t-22.5 -42t-9 -48.5t-2 -57.5v-379q0 -265 -201 -272q49 -3 86.5 -22t58.5 -46.5t34.5 -64.5t17.5 -70t4 -70v-397 q0 -40 3.5 -65.5t17 -54.5t38.5 -46t71.5 -29.5t113.5 -15.5v-70q-39 0 -67 1.5t-67 7.5t-66 17t-57 32t-48 50t-30 73t-12 100v397q0 109 -41 171t-147 73z" />
<glyph unicode="|" horiz-adv-x="417" d="M127 -545v2091h111v-2091h-111z" />
<glyph unicode="}" horiz-adv-x="829" d="M127 -340q67 3 113.5 15.5t71.5 29.5t38.5 46t17 54.5t3.5 65.5v397q0 262 198 273q-198 7 -198 272v379q0 36 -2 57.5t-9 48.5t-22.5 42t-42 30t-68.5 23t-100 10v72q46 0 76.5 -1.5t71 -7.5t67 -17t55 -32t44 -50.5t25 -74t7.5 -100.5v-379q0 -111 41.5 -172t147.5 -72 v-57q-106 -11 -147.5 -73t-41.5 -171v-397q0 -56 -12 -100t-30 -73t-47.5 -50t-57 -32t-66 -17t-66.5 -7.5t-67 -1.5v70z" />
<glyph unicode="~" horiz-adv-x="1095" d="M127 1274q56 75 95.5 96t90.5 21q29 0 189 -54q145 -49 192 -49t83.5 20t76.5 60q22 -10 42.5 -19t31.5 -14q-60 -76 -100 -106.5t-87 -30.5q-24 0 -97 16.5t-128 34.5q-160 54 -194 54q-26 0 -45.5 -5t-39.5 -20.5t-28 -22.5t-31 -32z" />
<glyph unicode="&#xa1;" horiz-adv-x="466" d="M127 1204q0 35 25.5 60.5t60.5 25.5q40 0 65 -25t25 -61q0 -39 -24.5 -64.5t-65.5 -25.5q-36 0 -61 26t-25 64zM152 -174v1003h118v-1003h-118z" />
<glyph unicode="&#xa8;" horiz-adv-x="1124" d="M127 1386q0 47 32 78t79 31t77.5 -31t30.5 -78t-30.5 -77.5t-77.5 -30.5q-48 0 -79.5 30.5t-31.5 77.5zM698 1386q0 47 32 78t79 31t78 -31t31 -78t-31 -77.5t-78 -30.5q-48 0 -79.5 30.5t-31.5 77.5z" />
<glyph unicode="&#xaa;" horiz-adv-x="698" d="M61 991q0 121 72.5 200t177.5 79q21 0 40.5 -3t35 -8.5t29.5 -12.5t25 -15t20 -15.5t15.5 -14.5t11 -12.5t6.5 -8.5l2 -2v79h96v-534h-96v82q-2 -4 -6.5 -10t-21.5 -22.5t-36.5 -29t-52 -22.5t-68.5 -10q-102 0 -176 79t-74 201zM158 991q0 -80 46.5 -135t121.5 -55 q70 0 116.5 48.5t49.5 117.5v49q-3 70 -49 117t-117 47q-75 0 -121.5 -54.5t-46.5 -134.5z" />
<glyph unicode="&#xac;" horiz-adv-x="1026" d="M106 594v76h771q0 -44 1 -143.5t1 -143.5h-84v211h-689z" />
<glyph unicode="&#xad;" horiz-adv-x="729" d="M147 481v90h365v-90h-365z" />
<glyph unicode="&#xb0;" horiz-adv-x="858" d="M106 1094q0 110 81 188t192 78q113 0 193.5 -78t80.5 -188t-80.5 -187.5t-193.5 -77.5q-111 0 -192 77.5t-81 187.5zM162 1094q0 -93 62.5 -158.5t154.5 -65.5q93 0 156 65.5t63 158.5q0 94 -63 159.5t-156 65.5q-92 0 -154.5 -65.5t-62.5 -159.5z" />
<glyph unicode="&#xb1;" horiz-adv-x="1335" d="M127 119v78h1010v-78h-1010zM127 647v90h457v250h106v-250h447v-90h-447v-276h-106v276h-457z" />
<glyph unicode="&#xb4;" horiz-adv-x="677" d="M106 1227l150 225h131l-194 -225h-87z" />
<glyph unicode="&#xb5;" horiz-adv-x="1212" d="M127 -557v1268q0 45 2 143.5t2 144.5h117v-565q0 -85 21.5 -150t54.5 -102.5t79 -61t88 -31t89 -7.5q39 0 79.5 9t85.5 32.5t80 59.5t59 95.5t27 135.5v585h121v-999h-121v154q-27 -48 -80 -91q-103 -88 -258 -88q-136 0 -243 80q-53 40 -84 82v-694h-119z" />
<glyph unicode="&#xb7;" horiz-adv-x="456" d="M127 866q0 24 15.5 39t39.5 15q23 0 38.5 -15.5t15.5 -38.5t-15.5 -39t-38.5 -16q-24 0 -39.5 15.5t-15.5 39.5z" />
<glyph unicode="&#xb8;" horiz-adv-x="641" d="M84 -449l219 355h186l-305 -355h-100z" />
<glyph unicode="&#xba;" horiz-adv-x="774" d="M63 1006q0 119 91.5 205.5t212.5 86.5t212 -86.5t91 -205.5t-91 -206t-212 -87t-212.5 87t-91.5 206zM172 1006q0 -85 55.5 -143t139.5 -58t139 58t55 143t-55 142.5t-139 57.5t-139.5 -57.5t-55.5 -142.5z" />
<glyph unicode="&#xbf;" horiz-adv-x="909" d="M117 -109q0 117 54.5 211.5t172.5 202.5q32 30 42 40t32.5 34.5t29.5 38.5t20.5 41.5t18 54.5t10 65.5t7.5 86.5h106q0 -127 -34 -224.5t-117 -171.5q-117 -101 -172.5 -190t-55.5 -191q0 -119 72.5 -186.5t190.5 -67.5q76 0 143 23q32 8 72 25l39 -95q-36 -19 -74 -30 q-91 -31 -182 -31q-162 0 -268.5 96t-106.5 268zM473 895q0 39 24.5 64.5t65.5 25.5q36 0 61 -26t25 -64q0 -35 -25.5 -60.5t-60.5 -25.5q-40 0 -65 25t-25 61z" />
<glyph unicode="&#xc0;" horiz-adv-x="1292" d="M18 0q105 282 287 771.5t248 666.5h156l536 -1438h-125l-108 283h-760l-107 -283h-127zM297 393h672l-340 924zM436 1845h131l152 -225h-86q-71 77 -197 225z" />
<glyph unicode="&#xc1;" horiz-adv-x="1292" d="M18 0q105 282 287 771.5t248 666.5h156l536 -1438h-125l-108 283h-760l-107 -283h-127zM297 393h672l-340 924zM506 1620l149 225h131l-194 -225h-86z" />
<glyph unicode="&#xc2;" horiz-adv-x="1292" d="M16 0q105 282 287 771.5t248 666.5h156l536 -1438h-125l-108 283h-760l-107 -283h-127zM295 393h672l-340 924zM406 1575q41 48 111.5 130t113.5 134q47 -57 124.5 -153.5t88.5 -110.5h-96l-115 158l-125 -158h-102z" />
<glyph unicode="&#xc3;" d="M18 0q105 282 287 771.5t248 666.5h156l536 -1438h-125l-108 283h-760l-107 -283h-127zM244 1669q25 28 59 55q73 56 127 56q34 0 187 -52.5t188 -52.5q24 0 42 7.5t26.5 15t26.5 28.5t30 33q22 -10 42.5 -19t31.5 -14q-60 -76 -100 -106.5t-87 -30.5q-38 0 -191.5 52.5 t-187.5 52.5q-32 0 -58.5 -11.5t-38.5 -22.5t-38 -38l-8 -8zM297 393h672l-340 924z" />
<glyph unicode="&#xc4;" horiz-adv-x="1292" d="M14 0q105 282 287 771.5t248 666.5h156l536 -1438h-125l-108 283h-760l-107 -283h-127zM274 1731q0 47 31.5 77.5t79.5 30.5q47 0 78 -30.5t31 -77.5t-31 -78t-78 -31t-79 31t-32 78zM293 393h672l-340 924zM758 1731q0 47 31.5 77.5t78.5 30.5t78 -30.5t31 -77.5 t-31 -78t-78 -31t-78.5 31t-31.5 78z" />
<glyph unicode="&#xc5;" d="M18 0q105 282 287 771.5t248 666.5h156l536 -1438h-125l-108 283h-760l-107 -283h-127zM297 393h672l-340 924zM477 1698q0 63 46.5 107t109.5 44q66 0 110.5 -44t44.5 -107q0 -62 -45 -106t-110 -44q-63 0 -109.5 44.5t-46.5 105.5zM524 1698q0 -44 32.5 -77.5 t76.5 -33.5t76 33t32 78q0 47 -31.5 79.5t-76.5 32.5t-77 -32.5t-32 -79.5z" />
<glyph unicode="&#xc6;" horiz-adv-x="1937" d="M57 4q119 214 243.5 441t277 508t239.5 440h899v-105h-649v-487h602v-105h-602v-592h649v-104h-780v274h-590l-151 -270h-138zM391 377h545v176q0 88 -3 301.5t-3 284.5v145h-60z" />
<glyph unicode="&#xc7;" horiz-adv-x="1400" d="M106 719q0 154 57.5 292t156 237.5t236 157.5t290.5 58q183 0 336 -78v-137q-143 94 -340 94q-173 0 -311.5 -82.5t-215.5 -225t-77 -316.5q0 -172 77 -314t216 -225.5t311 -83.5q197 0 340 94v-137q-78 -31 -107 -39q-107 -39 -229 -39q-153 0 -290.5 58t-236 157 t-156 237t-57.5 292zM518 -449l219 355h187l-306 -355h-100z" />
<glyph unicode="&#xc8;" d="M207 0v1438h801v-113h-678v-500h633v-110h-633v-604h678v-111h-801zM403 1845h132l149 -225h-84q-71 77 -197 225z" />
<glyph unicode="&#xc9;" d="M207 0v1438h801v-113h-678v-500h633v-110h-633v-604h678v-111h-801zM487 1620l150 225h131l-195 -225h-86z" />
<glyph unicode="&#xca;" d="M207 0v1438h801v-113h-678v-500h633v-110h-633v-604h678v-111h-801zM387 1575q42 50 112 131t113 133q47 -57 124.5 -153.5t88.5 -110.5h-96l-115 158l-127 -158h-100z" />
<glyph unicode="&#xcb;" d="M207 0v1438h801v-113h-678v-500h633v-110h-633v-604h678v-111h-801zM248 1731q0 47 31.5 77.5t78.5 30.5t78 -30.5t31 -77.5t-31 -78t-78 -31t-78.5 31t-31.5 78zM731 1731q0 47 32.5 77.5t80.5 30.5q45 0 76.5 -30.5t31.5 -77.5t-31.5 -78t-76.5 -31q-48 0 -80.5 31 t-32.5 78z" />
<glyph unicode="&#xcc;" horiz-adv-x="608" d="M41 1845h131l152 -225h-86q-103 115 -197 225zM178 0v1442h123v-1442h-123z" />
<glyph unicode="&#xcd;" horiz-adv-x="700" d="M127 1620l149 225h132l-195 -225h-86zM152 0v1442h122v-1442h-122z" />
<glyph unicode="&#xce;" horiz-adv-x="878" d="M127 1575q42 50 112 131t113 133q47 -57 124.5 -153.5t88.5 -110.5h-96l-115 158l-125 -158h-102zM293 0v1442h123v-1442h-123z" />
<glyph unicode="&#xcf;" horiz-adv-x="1015" d="M127 1731q0 47 31.5 77.5t79.5 30.5q47 0 78.5 -30.5t31.5 -77.5t-31.5 -78t-78.5 -31t-79 31t-32 78zM416 0v1442h123v-1442h-123zM610 1731q0 47 32.5 77.5t80.5 30.5q45 0 76.5 -30.5t31.5 -77.5t-31.5 -78t-76.5 -31q-48 0 -80.5 31t-32.5 78z" />
<glyph unicode="&#xd0;" horiz-adv-x="1378" d="M0 633v100h197v707l350 -2q105 0 209 -29t199 -89.5t168.5 -144t117 -202t43.5 -254.5q0 -141 -43 -260.5t-115 -202.5t-167.5 -142t-199.5 -86.5t-212 -27.5h-350v633h-197zM319 111h205q126 0 239 41t199.5 116t137.5 191.5t51 257.5q0 145 -51 262.5t-137.5 192.5 t-199 115t-239.5 40h-205v-594h201v-100h-201v-522z" />
<glyph unicode="&#xd1;" horiz-adv-x="1783" d="M297 0v1438h174l821 -1301v1301h123v-1438h-174l-821 1290v-1290h-123zM434 1688q22 25 60 55q71 55 127 55q34 0 186.5 -52t187.5 -52q24 0 42 7.5t26.5 15t26.5 28.5t30 33q22 -10 42.5 -19t31.5 -14q-61 -76 -100 -106.5t-86 -30.5q-37 0 -190.5 52t-188.5 52 q-26 0 -45.5 -5t-39.5 -20.5t-28 -22.5t-31 -32z" />
<glyph unicode="&#xd2;" horiz-adv-x="1718" d="M80 719q0 151 60 289.5t160 238t236.5 158.5t284.5 59q199 0 370 -99.5t272.5 -271.5t101.5 -374q0 -151 -60 -289.5t-160.5 -237.5t-237.5 -158t-286 -59q-148 0 -284.5 59t-236.5 158t-160 237.5t-60 289.5zM211 719q0 -175 80 -319t220.5 -227t311.5 -83q173 0 314 83 t220 227t79 319q0 178 -79.5 322.5t-220 226.5t-313.5 82q-172 0 -312 -82t-220 -227t-80 -322zM602 1845h131l150 -225h-86q-68 75 -195 225z" />
<glyph unicode="&#xd3;" horiz-adv-x="1718" d="M80 719q0 151 60 289.5t160 238t236.5 158.5t284.5 59q199 0 370 -99.5t272.5 -271.5t101.5 -374q0 -151 -60 -289.5t-160.5 -237.5t-237.5 -158t-286 -59q-148 0 -284.5 59t-236.5 158t-160 237.5t-60 289.5zM211 719q0 -175 80 -319t220.5 -227t311.5 -83q173 0 314 83 t220 227t79 319q0 178 -79.5 322.5t-220 226.5t-313.5 82q-172 0 -312 -82t-220 -227t-80 -322zM647 1620l152 225h129q-40 -46 -95 -111.5t-98 -113.5h-88z" />
<glyph unicode="&#xd4;" horiz-adv-x="1718" d="M80 719q0 151 60 289.5t160 238t236.5 158.5t284.5 59q199 0 370 -99.5t272.5 -271.5t101.5 -374q0 -151 -60 -289.5t-160.5 -237.5t-237.5 -158t-286 -59q-148 0 -284.5 59t-236.5 158t-160 237.5t-60 289.5zM211 719q0 -175 80 -319t220.5 -227t311.5 -83q173 0 314 83 t220 227t79 319q0 178 -79.5 322.5t-220 226.5t-313.5 82q-172 0 -312 -82t-220 -227t-80 -322zM600 1575q50 62 122.5 146.5t100.5 117.5q45 -54 215 -264h-98l-115 158l-125 -158h-100z" />
<glyph unicode="&#xd5;" horiz-adv-x="1658" d="M55 719q0 202 101.5 374t272 271.5t368.5 99.5q149 0 286 -59t237 -158.5t160 -238t60 -289.5t-60 -289.5t-160 -237.5t-237 -158t-286 -59q-148 0 -284.5 59t-237 158t-160.5 237.5t-60 289.5zM186 719q0 -175 80 -319t221 -227t312 -83q173 0 313.5 83t219.5 227 t79 319q0 178 -79 322.5t-219.5 226.5t-313.5 82q-129 0 -242.5 -48.5t-195 -132t-128.5 -200.5t-47 -250zM338 1686q56 74 95.5 95t90.5 21q32 0 189 -53q145 -49 192 -49t83.5 20t76.5 60q22 -10 42.5 -19t31.5 -14q-60 -76 -100 -106.5t-87 -30.5q-24 0 -97 16.5 t-128 34.5q-157 53 -195 53q-32 0 -58.5 -11.5t-38.5 -22.5t-38 -38l-8 -8z" />
<glyph unicode="&#xd6;" horiz-adv-x="1718" d="M80 719q0 151 60 289.5t160 238t236.5 158.5t284.5 59q199 0 370 -99.5t272.5 -271.5t101.5 -374q0 -151 -60 -289.5t-160.5 -237.5t-237.5 -158t-286 -59q-148 0 -284.5 59t-236.5 158t-160 237.5t-60 289.5zM211 719q0 -175 80 -319t220.5 -227t311.5 -83q173 0 314 83 t220 227t79 319q0 178 -79.5 322.5t-220 226.5t-313.5 82q-172 0 -312 -82t-220 -227t-80 -322zM467 1731q0 47 31.5 77.5t79.5 30.5q47 0 77.5 -30.5t30.5 -77.5t-30.5 -78t-77.5 -31t-79 31t-32 78zM950 1731q0 47 31.5 77.5t79.5 30.5q47 0 78.5 -30.5t31.5 -77.5 t-31.5 -78t-78.5 -31t-79 31t-32 78z" />
<glyph unicode="&#xd7;" horiz-adv-x="1345" d="M127 66l430 436l-430 440l70 62l426 -435l428 435l69 -62l-430 -440l430 -436l-67 -70l-430 438l-428 -438z" />
<glyph unicode="&#xd8;" horiz-adv-x="1923" d="M123 719q0 151 61 289.5t162 238t239 158.5t287 59q152 0 299.5 -68.5t268.5 -189.5l241 234q8 -12 23 -26.5t18 -20.5l-243 -240q145 -216 145 -434q0 -151 -61 -289.5t-163.5 -237.5t-240.5 -158t-287 -59q-221 0 -454 154q-28 -28 -111.5 -108t-118.5 -115l-43 45 l224 219q-246 246 -246 549zM264 719q0 -261 189 -469l897 870q-99 109 -221.5 169.5t-254.5 60.5q-172 0 -312 -82t-219 -226.5t-79 -322.5zM502 209q196 -119 372 -119q172 0 312 83t218.5 227t78.5 319q0 153 -94 352z" />
<glyph unicode="&#xd9;" horiz-adv-x="1568" d="M201 434v1006h131v-1008q0 -142 113.5 -242t279.5 -100q98 0 196.5 44.5t165 124t66.5 169.5v1012h133v-1440h-129v193q-46 -61 -113 -109q-147 -109 -325 -109q-113 0 -210.5 36.5t-164.5 99t-105 146.5t-38 177zM539 1845h131l153 -225h-88q-86 95 -196 225z" />
<glyph unicode="&#xda;" horiz-adv-x="1568" d="M201 434v1006h131v-1008q0 -142 113.5 -242t279.5 -100q98 0 196.5 44.5t165 124t66.5 169.5v1012h133v-1440h-129v193q-46 -61 -113 -109q-147 -109 -325 -109q-113 0 -210.5 36.5t-164.5 99t-105 146.5t-38 177zM604 1620l152 225h129q-40 -46 -95 -111.5t-98 -113.5 h-88z" />
<glyph unicode="&#xdb;" horiz-adv-x="1568" d="M201 434v1006h131v-1008q0 -142 113.5 -242t279.5 -100q98 0 196.5 44.5t165 124t66.5 169.5v1012h133v-1440h-129v193q-46 -61 -113 -109q-147 -109 -325 -109q-113 0 -210.5 36.5t-164.5 99t-105 146.5t-38 177zM518 1575q42 50 112 131t113 133q47 -57 124.5 -153.5 t88.5 -110.5h-96l-115 158l-127 -158h-100z" />
<glyph unicode="&#xdc;" horiz-adv-x="1568" d="M201 434v1006h131v-1008q0 -142 113.5 -242t279.5 -100q98 0 196.5 44.5t165 124t66.5 169.5v1012h133v-1440h-129v193q-46 -61 -113 -109q-147 -109 -325 -109q-113 0 -210.5 36.5t-164.5 99t-105 146.5t-38 177zM369 1731q0 47 31.5 77.5t78.5 30.5q48 0 79.5 -30.5 t31.5 -77.5t-32 -78t-79 -31t-78.5 31t-31.5 78zM852 1731q0 47 32.5 77.5t80.5 30.5q45 0 76.5 -30.5t31.5 -77.5t-31.5 -78t-76.5 -31q-48 0 -80.5 31t-32.5 78z" />
<glyph unicode="&#xdd;" horiz-adv-x="1300" d="M8 1438h137l445 -840l448 840h138l-523 -963v-475h-125v475zM481 1620l152 225h131q-46 -51 -101 -116.5t-94 -108.5h-88z" />
<glyph unicode="&#xde;" horiz-adv-x="1312" d="M127 0v1397h129v-346q32 57 88 110q127 111 299 111q123 0 232 -63.5t174 -172.5t65 -235q0 -127 -65.5 -236t-174 -172t-231.5 -63q-175 0 -301 110q-50 47 -86 111v-551h-129zM262 807q0 -156 106.5 -265.5t258.5 -109.5t259 110t107 265q0 156 -107 266.5t-259 110.5 t-258.5 -110.5t-106.5 -266.5z" />
<glyph unicode="&#xdf;" horiz-adv-x="1142" d="M129 1096q3 116 41 196q38 86 117.5 142.5t210.5 56.5q80 0 144.5 -17t104.5 -42t70 -60.5t44.5 -66t22.5 -65.5t9.5 -52t1.5 -33q0 -67 -18 -122.5t-43 -88.5t-55.5 -56t-52.5 -32.5t-38 -11.5q27 -2 65.5 -17.5t83 -48t82 -76t62.5 -108t25 -137.5q0 -226 -122 -353 t-364 -127v99q52 0 99.5 8t99 31.5t88 61t60.5 101.5t24 148q0 82 -26 145.5t-65 100t-90.5 59.5t-95 31t-86.5 8v104q30 2 58.5 9t64 25.5t61.5 47.5t44 79.5t18 115.5q0 86 -39 137.5t-98 75.5q-61 22 -135 22q-179 0 -227 -165q-15 -53 -15 -121v-1100h-129z" />
<glyph unicode="&#xe0;" horiz-adv-x="1230" d="M63 498q0 233 139.5 380.5t360.5 147.5q186 0 307 -113q58 -54 82 -110v198h115v-1001h-115v203q-24 -57 -82 -115q-117 -113 -307 -113q-220 0 -360 147.5t-140 375.5zM190 502q0 -182 105.5 -303t275.5 -121q160 0 261.5 104.5t119.5 268.5v102q-18 161 -120 266 t-261 105q-170 0 -275.5 -120.5t-105.5 -301.5zM381 1483h133l154 -230h-86q-38 42 -102 116.5t-99 113.5z" />
<glyph unicode="&#xe1;" horiz-adv-x="1230" d="M63 498q0 233 139.5 380.5t360.5 147.5q186 0 307 -113q58 -54 82 -110v198h115v-1001h-115v203q-24 -57 -82 -115q-117 -113 -307 -113q-220 0 -360 147.5t-140 375.5zM190 502q0 -182 105.5 -303t275.5 -121q160 0 261.5 104.5t119.5 268.5v102q-18 161 -120 266 t-261 105q-170 0 -275.5 -120.5t-105.5 -301.5zM463 1253l153 230h134q-49 -54 -106.5 -123t-90.5 -107h-90z" />
<glyph unicode="&#xe2;" horiz-adv-x="1230" d="M63 498q0 233 139.5 380.5t360.5 147.5q186 0 307 -113q58 -54 82 -110v198h115v-1001h-115v203q-24 -57 -82 -115q-117 -113 -307 -113q-220 0 -360 147.5t-140 375.5zM190 502q0 -182 105.5 -303t275.5 -121q160 0 261.5 104.5t119.5 268.5v102q-18 161 -120 266 t-261 105q-170 0 -275.5 -120.5t-105.5 -301.5zM362 1235q50 63 122.5 146.5t107.5 125.5l219 -272h-98l-119 162l-127 -162h-105z" />
<glyph unicode="&#xe3;" horiz-adv-x="1230" d="M63 498q0 233 139.5 380.5t360.5 147.5q186 0 307 -113q58 -54 82 -110v198h115v-1001h-115v203q-24 -57 -82 -115q-117 -113 -307 -113q-220 0 -360 147.5t-140 375.5zM182 1294q26 29 60 56q71 55 127 55q34 0 186.5 -52.5t187.5 -52.5q24 0 42 7.5t26.5 15t26.5 28.5 t30 33q21 -10 41 -18t33 -14q-61 -77 -100 -107.5t-86 -30.5q-38 0 -191 52.5t-188 52.5q-26 0 -45.5 -5t-39.5 -20.5t-28 -22.5t-31 -32zM190 502q0 -182 105.5 -303t275.5 -121q160 0 261.5 104.5t119.5 268.5v102q-18 161 -120 266t-261 105q-170 0 -275.5 -120.5 t-105.5 -301.5z" />
<glyph unicode="&#xe4;" horiz-adv-x="1230" d="M63 498q0 233 139.5 380.5t360.5 147.5q186 0 307 -113q58 -54 82 -110v198h115v-1001h-115v203q-24 -57 -82 -115q-117 -113 -307 -113q-220 0 -360 147.5t-140 375.5zM190 502q0 -182 105.5 -303t275.5 -121q160 0 261.5 104.5t119.5 268.5v102q-18 161 -120 266 t-261 105q-170 0 -275.5 -120.5t-105.5 -301.5zM227 1415q0 47 33 80t80 33t80 -33t33 -80t-32.5 -78.5t-80.5 -31.5t-80.5 31.5t-32.5 78.5zM721 1415q0 47 33 80t80 33t79.5 -33t32.5 -80t-32.5 -78.5t-79.5 -31.5q-48 0 -80.5 31.5t-32.5 78.5z" />
<glyph unicode="&#xe5;" horiz-adv-x="1230" d="M63 498q0 233 139.5 380.5t360.5 147.5q186 0 307 -113q58 -54 82 -110v198h115v-1001h-115v203q-24 -57 -82 -115q-117 -113 -307 -113q-220 0 -360 147.5t-140 375.5zM190 502q0 -182 105.5 -303t275.5 -121q160 0 261.5 104.5t119.5 268.5v102q-18 161 -120 266 t-261 105q-170 0 -275.5 -120.5t-105.5 -301.5zM418 1372q0 63 46 107.5t109 44.5q66 0 111 -44.5t45 -107.5q0 -62 -45 -105.5t-111 -43.5q-63 0 -109 44t-46 105zM465 1372q0 -44 32 -77t76 -33t76.5 33t32.5 77q0 47 -32 80t-77 33q-44 0 -76 -33t-32 -80z" />
<glyph unicode="&#xe6;" horiz-adv-x="1800" d="M63 274q0 51 16.5 95.5t56 85t99 69t151 45.5t206.5 17h145v135q0 60 -25.5 103t-68.5 64t-86.5 29.5t-93.5 8.5q-145 0 -299 -66l-53 94q64 25 104 35q130 37 250 37q94 0 167 -16.5t114.5 -44t63.5 -52t34 -51.5q25 42 80 82q114 82 284 82q73 0 136 -19t105.5 -48 t77 -69t54.5 -76.5t34 -76.5t19.5 -63t7.5 -41l9 -51q6 -46 0 -93h-793q0 -97 42 -189.5t124 -155t184 -62.5q129 0 232 47q48 20 88 47l53 -84q1 -1 -16 -13t-52 -29t-80 -34t-109.5 -28.5t-131.5 -10.5q-158 0 -277 115q-53 53 -86 115q-35 -65 -90 -117 q-125 -117 -311 -117q-152 0 -258.5 87.5t-106.5 213.5zM180 274q0 -91 74.5 -147.5t189.5 -52.5q49 0 118 27t126 78t57 106v204h-219q-61 0 -119.5 -12t-110.5 -36.5t-84 -67.5t-32 -99zM862 586h672q0 26 -7.5 63t-29.5 86.5t-55.5 90.5t-93.5 69.5t-136 28.5 q-82 0 -147 -26.5t-101.5 -65.5t-61 -87.5t-32.5 -87.5t-8 -71z" />
<glyph unicode="&#xe7;" horiz-adv-x="950" d="M82 508q0 149 72.5 269t196.5 185.5t274 65.5q57 0 129 -14l43 -13v-110l-37 18q-64 19 -131 19q-173 0 -297.5 -123t-124.5 -299q0 -113 57.5 -210t154.5 -154.5t210 -57.5q59 0 121 16l47 19v-111q-94 -24 -172 -24q-150 0 -274 66.5t-196.5 187t-72.5 270.5zM270 -428 l219 354h187l-305 -354h-101z" />
<glyph unicode="&#xe8;" horiz-adv-x="1087" d="M63 510q0 244 124 381t335 137q215 0 333 -139t118 -387v-13h-795q0 -103 42.5 -194.5t129 -152t199.5 -60.5q82 0 163 29t136 65l53 -84q-43 -32 -104 -57q-123 -58 -265 -58q-92 0 -177 37.5t-150 105t-103.5 169t-38.5 221.5zM184 590h670q0 152 -102 244t-236 92 q-60 0 -118 -21.5t-106.5 -61.5t-78 -106t-29.5 -147zM334 1483h133l156 -230h-88q-38 42 -102 116.5t-99 113.5z" />
<glyph unicode="&#xe9;" horiz-adv-x="1087" d="M63 510q0 244 124 381t335 137q215 0 333 -139t118 -387v-13h-795q0 -103 42.5 -194.5t129 -152t199.5 -60.5q82 0 163 29t136 65l53 -84q-43 -32 -104 -57q-123 -58 -265 -58q-92 0 -177 37.5t-150 105t-103.5 169t-38.5 221.5zM184 590h670q0 152 -102 244t-236 92 q-60 0 -118 -21.5t-106.5 -61.5t-78 -106t-29.5 -147zM403 1253l154 230h133q-32 -36 -90 -107t-108 -123h-89z" />
<glyph unicode="&#xea;" horiz-adv-x="1087" d="M63 510q0 244 124 381t335 137q215 0 333 -139t118 -387v-13h-795q0 -103 42.5 -194.5t129 -152t199.5 -60.5q82 0 163 29t136 65l53 -84q-43 -32 -104 -57q-123 -58 -265 -58q-92 0 -177 37.5t-150 105t-103.5 169t-38.5 221.5zM184 590h670q0 152 -102 244t-236 92 q-60 0 -118 -21.5t-106.5 -61.5t-78 -106t-29.5 -147zM307 1235q50 63 122.5 146.5t107.5 125.5l219 -272h-99l-118 162l-129 -162h-103z" />
<glyph unicode="&#xeb;" horiz-adv-x="1087" d="M63 510q0 244 124 381t335 137q215 0 333 -139t118 -387v-13h-795q0 -103 42.5 -194.5t129 -152t199.5 -60.5q82 0 163 29t136 65l53 -84q-43 -32 -104 -57q-123 -58 -265 -58q-92 0 -177 37.5t-150 105t-103.5 169t-38.5 221.5zM152 1415q0 47 32.5 80t79.5 33t80 -33 t33 -80t-32.5 -78.5t-80.5 -31.5q-47 0 -79.5 31.5t-32.5 78.5zM184 590h670q0 152 -102 244t-236 92q-60 0 -118 -21.5t-106.5 -61.5t-78 -106t-29.5 -147zM645 1415q0 48 33 80.5t82 32.5q47 0 78.5 -32.5t31.5 -80.5q0 -47 -31.5 -78.5t-78.5 -31.5q-49 0 -82 31.5 t-33 78.5z" />
<glyph unicode="&#xec;" horiz-adv-x="407" d="M0 1483h133l154 -230h-86q-38 42 -102 116.5t-99 113.5zM123 0v1001h121v-1001h-121z" />
<glyph unicode="&#xed;" horiz-adv-x="481" d="M88 1253l154 230h133q-49 -54 -106.5 -123t-90.5 -107h-90zM162 0v1001h121v-1001h-121z" />
<glyph unicode="&#xee;" horiz-adv-x="462" d="M0 1235q125 156 229 272q40 -50 110.5 -139.5t106.5 -132.5h-98l-117 162l-129 -162h-102zM170 0v1001h121v-1001h-121z" />
<glyph unicode="&#xef;" horiz-adv-x="499" d="M-119 1415q0 47 33 80t80 33t79.5 -33t32.5 -80t-32.5 -78.5t-79.5 -31.5q-48 0 -80.5 31.5t-32.5 78.5zM182 0v1001h121v-1001h-121zM375 1415q0 48 32.5 80.5t81.5 32.5q47 0 79 -33t32 -80t-32 -78.5t-79 -31.5q-49 0 -81.5 31.5t-32.5 78.5z" />
<glyph unicode="&#xf0;" horiz-adv-x="1163" d="M84 424q0 82 30.5 162t86 146t143 106.5t191.5 40.5q165 0 272 -76q46 -34 74 -76q-16 80 -51.5 149t-81 118.5t-100 91t-109 68.5t-108 48t-96 33.5t-74.5 20.5q-12 3 -17 4q7 48 16 96q175 -27 312.5 -91.5t223 -149t141 -192t77.5 -212t22 -217.5 q0 -238 -138.5 -378.5t-358.5 -140.5q-83 0 -157 27t-127.5 72t-92.5 103t-58.5 121.5t-19.5 125.5zM199 426q0 -145 105 -248.5t253 -103.5t253 103.5t105 248.5q0 142 -105.5 247t-252.5 105t-252.5 -105t-105.5 -247z" />
<glyph unicode="&#xf1;" horiz-adv-x="1177" d="M117 0v1001h121v-155q26 45 84 90q113 90 292 90q190 0 296 -115t106 -323q0 -98 -1 -293.5t-1 -294.5h-121v561q0 354 -328 354q-41 0 -84.5 -11t-87.5 -37.5t-78 -64.5t-55.5 -97t-21.5 -130v-575h-121zM168 1294q28 31 59 56q71 55 127 55q34 0 187 -52.5t188 -52.5 q24 0 42 7.5t26.5 15t26.5 28.5t30 33q21 -10 41 -18t33 -14q-61 -77 -100.5 -107.5t-86.5 -30.5q-37 0 -191 52.5t-188 52.5q-32 0 -58.5 -11.5t-38.5 -22.5t-38 -38q-3 -2 -4.5 -4t-3.5 -4z" />
<glyph unicode="&#xf2;" horiz-adv-x="1263" d="M63 506q0 227 154 375.5t383 148.5q150 0 276 -66.5t201.5 -187.5t75.5 -270q0 -152 -75.5 -274.5t-201.5 -189.5t-276 -67q-229 0 -383 150t-154 381zM186 504q0 -174 124 -299t296 -125q175 0 299.5 124.5t124.5 299.5q0 176 -124.5 299t-299.5 123q-173 0 -296.5 -123 t-123.5 -299zM377 1483h133l156 -230h-88q-38 42 -102 116.5t-99 113.5z" />
<glyph unicode="&#xf3;" horiz-adv-x="1263" d="M63 506q0 227 154 375.5t383 148.5q150 0 276 -66.5t201.5 -187.5t75.5 -270q0 -152 -75.5 -274.5t-201.5 -189.5t-276 -67q-229 0 -383 150t-154 381zM186 504q0 -174 124 -299t296 -125q175 0 299.5 124.5t124.5 299.5q0 176 -124.5 299t-299.5 123q-173 0 -296.5 -123 t-123.5 -299zM483 1253l154 230h133q-49 -54 -106.5 -123t-90.5 -107h-90z" />
<glyph unicode="&#xf4;" horiz-adv-x="1263" d="M63 506q0 227 154 375.5t383 148.5q150 0 276 -66.5t201.5 -187.5t75.5 -270q0 -152 -75.5 -274.5t-201.5 -189.5t-276 -67q-229 0 -383 150t-154 381zM186 504q0 -174 124 -299t296 -125q175 0 299.5 124.5t124.5 299.5q0 176 -124.5 299t-299.5 123q-173 0 -296.5 -123 t-123.5 -299zM367 1235q125 156 229 272q40 -50 110.5 -139.5t106.5 -132.5h-98l-117 162l-129 -162h-102z" />
<glyph unicode="&#xf5;" horiz-adv-x="1263" d="M63 506q0 227 154 375.5t383 148.5q150 0 276 -66.5t201.5 -187.5t75.5 -270q0 -152 -75.5 -274.5t-201.5 -189.5t-276 -67q-229 0 -383 150t-154 381zM186 504q0 -174 124 -299t296 -125q175 0 299.5 124.5t124.5 299.5q0 176 -124.5 299t-299.5 123q-173 0 -296.5 -123 t-123.5 -299zM188 1294q26 29 60 56q71 55 127 55q34 0 187 -52.5t188 -52.5q24 0 42 7.5t26.5 15.5t26 28.5t29.5 32.5q21 -10 41 -18t33 -14q-61 -77 -100 -107.5t-86 -30.5q-38 0 -191 52.5t-188 52.5q-32 0 -58.5 -11.5t-38.5 -22.5t-38 -38q-3 -2 -4.5 -4t-3.5 -4z" />
<glyph unicode="&#xf6;" horiz-adv-x="1263" d="M63 506q0 227 154 375.5t383 148.5q150 0 276 -66.5t201.5 -187.5t75.5 -270q0 -152 -75.5 -274.5t-201.5 -189.5t-276 -67q-229 0 -383 150t-154 381zM186 504q0 -174 124 -299t296 -125q175 0 299.5 124.5t124.5 299.5q0 176 -124.5 299t-299.5 123q-173 0 -296.5 -123 t-123.5 -299zM227 1415q0 47 33 80t80 33t79 -33t32 -80t-32 -78.5t-79 -31.5q-48 0 -80.5 31.5t-32.5 78.5zM721 1415q0 47 33 80t80 33t79.5 -33t32.5 -80t-32.5 -78.5t-79.5 -31.5q-48 0 -80.5 31.5t-32.5 78.5z" />
<glyph unicode="&#xf7;" horiz-adv-x="1378" d="M147 487v80h1010v-80h-1010zM590 225q0 31 22.5 53.5t53.5 22.5t53 -22.5t22 -53.5t-22 -52t-53 -21t-53.5 21.5t-22.5 51.5zM590 825q0 31 22.5 53.5t53.5 22.5t53 -22.5t22 -53.5t-22 -52t-53 -21t-53.5 21.5t-22.5 51.5z" />
<glyph unicode="&#xf8;" horiz-adv-x="1417" d="M106 25l136 127q-127 146 -127 354q0 227 153.5 375.5t382.5 148.5q224 0 377 -137l129 121l53 -53l-129 -121q123 -142 123 -334q0 -152 -75.5 -274.5t-201.5 -189.5t-276 -67q-208 0 -360 127l-135 -127zM238 504q0 -150 94 -268l612 577q-119 113 -287 113 q-173 0 -296 -123t-123 -299zM381 186q119 -106 276 -106q175 0 299.5 124.5t124.5 299.5q0 139 -88 254z" />
<glyph unicode="&#xf9;" horiz-adv-x="1212" d="M117 420q0 98 1 292.5t1 288.5h119v-559q0 -356 331 -356q47 0 91 9.5t88.5 35t77 64.5t53 102.5t20.5 144.5v559h121v-1001h-121v150q-35 -51 -86 -87q-118 -86 -285 -86q-201 0 -306 120.5t-105 322.5zM373 1483h133l153 -230h-86q-38 42 -101.5 116.5t-98.5 113.5z " />
<glyph unicode="&#xfa;" horiz-adv-x="1212" d="M117 420q0 98 1 292.5t1 288.5h119v-559q0 -356 331 -356q47 0 91 9.5t88.5 35t77 64.5t53 102.5t20.5 144.5v559h121v-1001h-121v150q-35 -51 -86 -87q-118 -86 -285 -86q-201 0 -306 120.5t-105 322.5zM446 1253l154 230h133q-32 -36 -90 -107t-108 -123h-89z" />
<glyph unicode="&#xfb;" horiz-adv-x="1212" d="M117 420q0 98 1 292.5t1 288.5h119v-561q0 -356 331 -356q47 0 91 10.5t88.5 36.5t77 66t53 104t20.5 145v555h121v-1001h-121v150q-35 -51 -86 -87q-118 -86 -285 -86q-201 0 -306 120.5t-105 322.5zM332 1235q51 63 123 147t106 125q128 -156 217 -272h-98l-117 162 l-129 -162h-102z" />
<glyph unicode="&#xfc;" horiz-adv-x="1212" d="M117 420q0 98 1 292.5t1 288.5h119v-559q0 -356 331 -356q47 0 91 9.5t88.5 35t77 64.5t53 102.5t20.5 144.5v559h121v-1001h-121v150q-35 -51 -86 -87q-118 -86 -285 -86q-201 0 -306 120.5t-105 322.5zM150 1415q0 47 32.5 80t79.5 33t80 -33t33 -80t-32.5 -78.5 t-80.5 -31.5q-47 0 -79.5 31.5t-32.5 78.5zM733 1415q0 47 33 80t80 33t78.5 -32.5t31.5 -80.5q0 -47 -31.5 -78.5t-78.5 -31.5q-48 0 -80.5 31.5t-32.5 78.5z" />
<glyph unicode="&#xfd;" horiz-adv-x="1089" d="M27 1001h133l377 -880l342 880h131l-627 -1576h-133l219 561zM432 1253l154 230h133q-49 -54 -106.5 -123t-90.5 -107h-90z" />
<glyph unicode="&#xfe;" horiz-adv-x="1232" d="M111 -555v1982h118v-618l5 8q4 8 13 22t22 32t32 37.5t41 39t51 37.5t61 32t72 22t82 8q225 0 369.5 -148t144.5 -379q0 -233 -144 -380.5t-370 -147.5q-209 1 -330 154q-24 31 -49 79v-780h-118zM231 518q0 -180 104.5 -302t276.5 -122q115 0 203 57.5t134 153.5t46 213 q0 180 -105.5 303t-277.5 123t-276.5 -123t-104.5 -303z" />
<glyph unicode="&#xff;" horiz-adv-x="1089" d="M27 1001h133l377 -880l342 880h131l-627 -1576h-133l219 561zM100 1415q0 47 33 80t80 33t79 -33t32 -80t-32 -78.5t-79 -31.5q-48 0 -80.5 31.5t-32.5 78.5zM682 1415q0 48 33 80.5t82 32.5q47 0 78.5 -32.5t31.5 -80.5q0 -47 -31.5 -78.5t-78.5 -31.5q-49 0 -82 31.5 t-33 78.5z" />
<glyph unicode="&#x152;" horiz-adv-x="2111" d="M106 698q0 147 59.5 280.5t159.5 230t236 153.5t283 57q103 0 198 -26h824v-105h-680v-487h635v-105h-635v-592h680v-104h-830q-142 -25 -192 -25q-147 0 -283 57t-236 153.5t-159.5 231t-59.5 281.5zM238 698q0 -172 79 -315.5t219 -227t310 -83.5q95 0 217 45v1163 q-119 45 -217 45q-127 0 -240.5 -49.5t-194 -133.5t-127 -199.5t-46.5 -244.5z" />
<glyph unicode="&#x153;" horiz-adv-x="2066" d="M63 506q0 144 71.5 264.5t196 190t273.5 69.5q95 0 177.5 -27t140 -72t96 -92t63.5 -98q118 291 430 291q70 0 130.5 -17.5t101.5 -42.5t75.5 -62.5t54 -69t36 -70t21.5 -56.5t10 -38q2 -6 2 -8t3.5 -18t4.5 -27q8 -41 8 -134q-300 -4 -397 -4q-398 0 -398 4 q0 -69 27 -140.5t75.5 -131t124.5 -97.5t164 -38q108 0 211 47q48 20 88 47l54 -84q-43 -30 -109 -57q-127 -58 -272 -58q-51 0 -111 18t-120 52t-113 91.5t-82 127.5q-181 -291 -496 -291q-148 0 -273 72t-196.5 194t-71.5 265zM186 504q0 -176 125.5 -302t298.5 -126 q177 0 302.5 125.5t125.5 302.5q0 175 -125.5 300.5t-302.5 125.5q-172 0 -298 -126t-126 -300zM1167 586h672q0 35 -9.5 77t-33.5 92t-60 90.5t-96 67.5t-133 27q-78 0 -140.5 -28.5t-98.5 -70t-60 -93t-32.5 -91.5t-8.5 -71z" />
<glyph unicode="&#x178;" horiz-adv-x="1394" d="M45 1438h137l445 -840l448 840h137l-522 -963v-475h-125v475zM266 1731q0 47 31.5 77.5t79.5 30.5q47 0 78.5 -30.5t31.5 -77.5t-31.5 -78t-78.5 -31t-79 31t-32 78zM750 1731q0 47 32 77.5t80 30.5q47 0 78 -30.5t31 -77.5t-31 -78t-78 -31q-48 0 -80 31t-32 78z" />
<glyph unicode="&#x2c6;" horiz-adv-x="788" d="M84 1575q41 48 111.5 130t113.5 134q47 -57 124.5 -153.5t88.5 -110.5h-96l-115 158l-125 -158h-102z" />
<glyph unicode="&#x2dc;" horiz-adv-x="1198" d="M152 1294q28 31 59 56q71 55 127 55q34 0 187 -52.5t188 -52.5q24 0 42 7.5t26.5 15t26.5 28.5t30 33q21 -10 40.5 -18t32.5 -14q-61 -77 -100 -107.5t-86 -30.5q-37 0 -191 52.5t-188 52.5q-32 0 -58.5 -11.5t-38.5 -22.5t-38 -38q-3 -2 -4.5 -4t-3.5 -4z" />
<glyph unicode="&#x2000;" horiz-adv-x="924" />
<glyph unicode="&#x2001;" horiz-adv-x="1849" />
<glyph unicode="&#x2002;" horiz-adv-x="924" />
<glyph unicode="&#x2003;" horiz-adv-x="1849" />
<glyph unicode="&#x2004;" horiz-adv-x="616" />
<glyph unicode="&#x2005;" horiz-adv-x="462" />
<glyph unicode="&#x2006;" horiz-adv-x="308" />
<glyph unicode="&#x2007;" horiz-adv-x="308" />
<glyph unicode="&#x2008;" horiz-adv-x="231" />
<glyph unicode="&#x2009;" horiz-adv-x="369" />
<glyph unicode="&#x200a;" horiz-adv-x="102" />
<glyph unicode="&#x2010;" horiz-adv-x="729" d="M147 481v90h365v-90h-365z" />
<glyph unicode="&#x2011;" horiz-adv-x="729" d="M147 481v90h365v-90h-365z" />
<glyph unicode="&#x2012;" horiz-adv-x="729" d="M147 481v90h365v-90h-365z" />
<glyph unicode="&#x2013;" horiz-adv-x="1069" d="M106 573v89h736v-89h-736z" />
<glyph unicode="&#x2014;" horiz-adv-x="1937" d="M127 551v88h1628v-88h-1628z" />
<glyph unicode="&#x2018;" horiz-adv-x="638" d="M127 1055q69 138 225 458l62 -28l-191 -473q-19 6 -35 13.5t-33.5 16t-27.5 13.5z" />
<glyph unicode="&#x2019;" horiz-adv-x="638" d="M127 1040l188 473q18 -7 35 -15t35.5 -16.5t28.5 -13.5q-44 -89 -119 -237.5t-109 -218.5q-47 20 -59 28z" />
<glyph unicode="&#x201a;" horiz-adv-x="538" d="M84 -240l190 473q13 -5 54 -20t59 -23q-40 -83 -113.5 -231t-111.5 -227q-10 4 -28 9.5t-31 10t-19 8.5z" />
<glyph unicode="&#x201c;" horiz-adv-x="948" d="M127 942q126 262 225 457l62 -27l-193 -471q-25 9 -55.5 23.5t-38.5 17.5zM379 942l227 457l62 -27l-193 -473q-18 6 -34.5 13.5t-34 16.5t-27.5 13z" />
<glyph unicode="&#x201d;" horiz-adv-x="948" d="M127 926l192 473q18 -6 34.5 -13t35 -16.5t27.5 -13.5q-67 -139 -228 -457zM381 926l192 471q3 -1 97 -41l-228 -457z" />
<glyph unicode="&#x201e;" horiz-adv-x="806" d="M127 -240l192 473q13 -5 97 -43q-46 -95 -123.5 -249t-104.5 -209q-19 7 -61 28zM381 -240l192 471l97 -41q-28 -57 -106.5 -212.5t-121.5 -245.5q-19 7 -61 28z" />
<glyph unicode="&#x2022;" horiz-adv-x="784" d="M127 924q0 98 64 160.5t163 62.5q94 0 155.5 -62.5t61.5 -160.5q0 -93 -62 -155t-155 -62q-98 0 -162.5 62t-64.5 155z" />
<glyph unicode="&#x2026;" horiz-adv-x="1200" d="M127 70q0 41 27.5 67.5t68.5 26.5t67.5 -26.5t26.5 -67.5q0 -39 -27 -67t-67 -28q-41 0 -68.5 28t-27.5 67zM479 70q0 41 27.5 67.5t68.5 26.5q39 0 67 -27t28 -67q0 -38 -28.5 -66.5t-66.5 -28.5q-41 0 -68.5 28t-27.5 67zM840 70q0 41 27.5 67.5t68.5 26.5 q39 0 65.5 -26.5t26.5 -67.5q0 -39 -27 -67t-65 -28q-41 0 -68.5 28t-27.5 67z" />
<glyph unicode="&#x202f;" horiz-adv-x="369" />
<glyph unicode="&#x205f;" horiz-adv-x="462" />
<glyph unicode="&#x20ac;" horiz-adv-x="1193" d="M147 469v104h134q-9 59 -9 121q0 58 9 117h-134v104h158q65 221 253.5 360.5t428.5 139.5l-4 -117q-158 0 -311 -108.5t-226 -274.5h283v-104h-317q-13 -63 -13 -117q0 -50 11 -121h319v-104h-291q63 -170 208.5 -273.5t336.5 -103.5l4 -117q-269 0 -445.5 134.5 t-240.5 359.5h-154z" />
<glyph unicode="&#x25fc;" horiz-adv-x="1003" d="M0 0v1004h1004v-1004h-1004z" />
</font>
</defs>
</svg>
