<?xml version="1.0" standalone="no"?>
<!DOCTYPE svg PUBLIC "-//W3C//DTD SVG 1.1//EN" "http://www.w3.org/Graphics/SVG/1.1/DTD/svg11.dtd" >
<svg xmlns="http://www.w3.org/2000/svg">
<metadata></metadata>
<defs>
<font id="nordiakregular" horiz-adv-x="1214" >
<font-face units-per-em="2048" ascent="1536" descent="-512" />
<missing-glyph horiz-adv-x="542" />
<glyph horiz-adv-x="0" />
<glyph horiz-adv-x="682" />
<glyph horiz-adv-x="0" />
<glyph horiz-adv-x="0" />
<glyph unicode="&#xd;" horiz-adv-x="1148" />
<glyph unicode=" "  horiz-adv-x="542" />
<glyph unicode="&#x09;" horiz-adv-x="542" />
<glyph unicode="&#xa0;" horiz-adv-x="542" />
<glyph unicode="!" horiz-adv-x="491" d="M125 88q0 50 33.5 83.5t83.5 33.5q51 0 83.5 -33.5t32.5 -83.5q0 -48 -33 -81.5t-83 -33.5q-49 0 -83 33.5t-34 81.5zM158 434v1014h155v-1014h-155z" />
<glyph unicode="&#x22;" horiz-adv-x="700" d="M104 1182l58 444l137 -55q-51 -269 -90 -445zM379 1182l57 444l137 -55q-51 -269 -90 -445z" />
<glyph unicode="#" horiz-adv-x="1591" d="M125 395v117q52 0 157.5 -1t157.5 -1q36 304 41 356h-307v117q53 0 161 -1t161 -1l49 410h133l-47 -410h336l49 410h133l-47 -410h334v-117h-349q-26 -216 -40 -354h342v-117h-357l-47 -393h-133l45 393q-57 0 -168 1t-168 1l-47 -395h-133l45 395h-301zM575 510h336 q33 274 41 354q-57 0 -168.5 1t-167.5 1q-36 -304 -41 -356z" />
<glyph unicode="$" horiz-adv-x="1146" d="M100 152q6 9 64 47.5t63 44.5q46 -56 117 -94.5t145 -38.5q111 0 194 72.5t83 189.5q1 53 -16 97.5t-43 76t-69.5 62t-82.5 51.5t-96 49q-22 10 -33 16q-141 70 -206.5 145.5t-65.5 198.5q0 115 72 218t210 143v247h164v-231q67 0 134 -27t112 -63q-4 -4 -55 -55.5 t-58 -61.5q-1 1 -11 7t-19.5 12t-26.5 13.5t-33.5 13t-39 9.5t-44.5 4q-90 0 -162.5 -64.5t-72.5 -160.5q0 -41 16 -73t50.5 -58.5t65.5 -43.5t87 -44t88 -45q91 -52 153 -105.5t94.5 -107.5t45 -103t12.5 -106q0 -146 -90.5 -262.5t-245.5 -147.5v-256h-164v250h-4 q-89 9 -163.5 43t-112.5 69t-56 69z" />
<glyph unicode="%" horiz-adv-x="1376" d="M111 1094q0 147 57.5 237t171.5 90q118 0 175.5 -89.5t57.5 -237.5q0 -144 -60.5 -236t-172.5 -92t-170.5 92t-58.5 236zM154 -63l884 1523h117l-885 -1523h-116zM211 1094q0 -94 33 -160t96 -66q66 0 98.5 65.5t32.5 160.5q0 94 -35 160.5t-96 66.5t-95 -66.5 t-34 -160.5zM758 307q0 147 57.5 237.5t171.5 90.5q117 0 174.5 -90t57.5 -238q0 -144 -60 -235.5t-172 -91.5t-170.5 91.5t-58.5 235.5zM856 307q0 -94 33.5 -159.5t97.5 -65.5q65 0 97 65t32 160q0 94 -34 161t-95 67t-96 -67t-35 -161z" />
<glyph unicode="&#x26;" horiz-adv-x="1437" d="M125 381q0 199 176 321l21 15q2 1 6.5 4t9 5.5t8.5 6.5l111 76l-43 51q-65 76 -92 143q-26 66 -25 136q0 34 10.5 69.5t35 73t60.5 67t92.5 48t125.5 18.5q76 0 139 -27.5t101.5 -70.5t59.5 -93.5t21 -99.5q0 -77 -43.5 -145t-77.5 -90h2l-139 -105q76 -87 166 -198 l125 -150l121 129q3 -3 108 -114l-129 -136l154 -184q97 -116 108 -127h-209l-159 191l-70 -70q-20 -20 -47 -41t-72.5 -48t-106 -44t-124.5 -17q-183 0 -303.5 120t-120.5 286zM287 371q0 -70 42 -129.5t102.5 -91t121.5 -31.5q24 0 48.5 5t45 12t42 19t38 23t34.5 27 t30 27t26.5 27t21 24t16.5 20.5t11 13.5q-51 62 -154.5 185.5t-154.5 185.5l-135 -98q-17 -9 -36 -24.5t-43.5 -42.5t-40 -67t-15.5 -85zM463 1139q0 -78 123 -236q88 54 110 76q2 1 12 9t14 11.5t13.5 12.5t14.5 16t12 19t10.5 24t6.5 28t3 34q0 41 -17 71t-43.5 45t-52 22 t-48.5 7q-25 0 -48.5 -5.5t-50 -19t-43 -43t-16.5 -71.5z" />
<glyph unicode="'" horiz-adv-x="348" d="M82 1395h135l-16 -365h-103z" />
<glyph unicode="(" horiz-adv-x="718" d="M125 516q0 121 31 258t75.5 247.5t88.5 201t75 143t31 49.5q24 0 72 -1t73 -1q-2 -4 -42 -81.5t-62.5 -124.5t-62.5 -144t-63 -174.5t-41.5 -179.5t-18.5 -193q0 -427 281 -906q5 -8 7 -11h-141q-303 471 -303 917z" />
<glyph unicode=")" horiz-adv-x="718" d="M135 -401q27 45 49 83t71 142t82 199.5t60 231t27 261.5q0 113 -23.5 232t-63.5 225.5t-75 183.5t-77 158t-50 98q23 0 72 1t72 1q0 3 31 -49.5t75.5 -143t89.5 -201t76 -247.5t31 -258q0 -74 -8 -148t-24 -142t-33 -128.5t-43 -121.5t-44.5 -104.5t-47 -94.5t-42 -75 t-37 -62.5t-24.5 -40.5h-144z" />
<glyph unicode="*" horiz-adv-x="915" d="M115 1260l35 124l251 -94q-9 90 -20 250h127l-21 -250q10 4 248 94l37 -122q-237 -49 -268 -54l201 -227l-101 -80l-162 248l-159 -248l-101 80l199 227z" />
<glyph unicode="+" horiz-adv-x="1220" d="M82 465v117h448v465h129v-465h443v-117h-443v-485h-129v485h-448z" />
<glyph unicode="," horiz-adv-x="536" d="M61 -223l191 495q7 -3 43 -16t69 -25t39 -16q-172 -345 -237 -481q-9 3 -53 21t-52 22z" />
<glyph unicode="-" horiz-adv-x="710" d="M145 467v127h396v-4q0 -4 -1 -12t-1 -11v-100h-394z" />
<glyph unicode="." horiz-adv-x="436" d="M82 88q0 47 33 79t80 32t79.5 -32t32.5 -79q0 -46 -32.5 -79.5t-79.5 -33.5t-80 33.5t-33 79.5z" />
<glyph unicode="/" horiz-adv-x="1155" d="M92 2l725 1415h182q-227 -450 -725 -1415h-182z" />
<glyph unicode="0" horiz-adv-x="1220" d="M78 702q0 125 19 232.5t59.5 197.5t99.5 154t143 99.5t187 35.5q134 0 235 -54t162 -152.5t91 -226.5t30 -286q0 -153 -32.5 -283.5t-95.5 -229.5t-163 -155.5t-227 -56.5q-126 0 -224.5 56t-159.5 155.5t-92.5 229.5t-31.5 284zM250 702q0 -121 21 -224.5t62 -183 t107 -124.5t150 -45q92 0 159.5 45t106.5 125.5t57.5 181.5t18.5 225q0 161 -37.5 288.5t-116.5 205.5t-188 78q-108 0 -186.5 -78t-116 -205.5t-37.5 -288.5z" />
<glyph unicode="1" horiz-adv-x="598" d="M35 1247l28 144h390v-1391h-166v1247h-252z" />
<glyph unicode="2" horiz-adv-x="1075" d="M94 0v147q48 50 191.5 219.5t304 385.5t170.5 288q2 12 2 37q0 90 -65 143.5t-183 53.5q-47 0 -78 -17q-27 -3 -50 -11t-38.5 -18t-28 -23.5t-19 -25t-12 -26t-7 -22.5t-3.5 -19l-2 -12h-159q3 40 14.5 79t40.5 83.5t72.5 77.5t116.5 55t165 22q187 0 299.5 -97 t112.5 -251v-14q-3 -59 -80.5 -187t-193 -276t-206.5 -258t-165 -193h661q0 -23 1 -70t1 -71h-862z" />
<glyph unicode="3" horiz-adv-x="1054" d="M104 358h172q6 -106 79 -169.5t184 -63.5q88 0 168.5 75.5t80.5 174.5q0 64 -20 114t-49.5 79.5t-69 49.5t-71.5 28t-64 11v152q29 1 57.5 7t64.5 22.5t62.5 42.5t45 71.5t18.5 104.5q0 85 -70 154t-166 69q-102 0 -165.5 -59t-71.5 -146h-146q0 20 6.5 53.5t31.5 86.5 t63.5 96.5t111.5 75.5t168 32q85 0 159.5 -33t124 -85.5t77.5 -116.5t28 -127q0 -65 -19.5 -122t-44.5 -91t-56.5 -61t-47.5 -36t-24 -12q4 0 25.5 -10t57 -37t68 -65t56.5 -104t24 -144q0 -66 -31 -136t-84.5 -129t-133.5 -97t-168 -38q-96 0 -177.5 35t-134 91 t-83.5 122.5t-36 134.5z" />
<glyph unicode="4" horiz-adv-x="1021" d="M41 264v150q205 345 584 972q0 1 73.5 3t92.5 2v-985h106v-142h-106v-264h-156v264h-594zM203 406h432v714q-73 -119 -216.5 -357t-215.5 -357z" />
<glyph unicode="5" horiz-adv-x="1150" d="M104 367h175q9 -114 95 -180t212 -66q127 0 217 93t90 220t-97 224.5t-235 97.5q-74 0 -131 -19t-127 -67q-2 0 -18 4q-8 2 -30 10.5t-22 9.5l-90 35l115 662h653v-144h-518l-71 -397q112 57 264 57q127 0 236 -62t174 -171.5t65 -239.5q0 -194 -137.5 -325.5 t-337.5 -131.5q-201 0 -337 104t-145 286z" />
<glyph unicode="6" horiz-adv-x="1105" d="M88 408q0 113 53 208l381 775h174q-138 -284 -280 -572q5 1 20 6t23 7t22.5 5t29.5 4t32 1q190 0 321 -124t131 -310q0 -185 -131 -309t-321 -124q-189 0 -322 124.5t-133 308.5zM258 410q0 -118 83.5 -202.5t201.5 -84.5q116 0 200 85t84 202q0 118 -84 202t-200 84 q-118 0 -201.5 -83.5t-83.5 -202.5z" />
<glyph unicode="7" horiz-adv-x="940" d="M94 1247v144h766v-156l-491 -1235h-181l502 1247h-596z" />
<glyph unicode="8" horiz-adv-x="1112" d="M109 393q0 108 57.5 202t155.5 157q-75 61 -117.5 138.5t-42.5 164.5q0 153 112.5 259.5t268.5 106.5q159 0 272 -106.5t113 -259.5q0 -87 -42.5 -165t-119.5 -138q101 -63 158 -156t57 -203q0 -179 -127.5 -299.5t-310.5 -120.5q-179 0 -306.5 121t-127.5 299zM276 389 q0 -110 80 -191t187 -81q112 0 190 80.5t78 191.5t-78 192t-190 81q-107 0 -187 -81.5t-80 -191.5zM311 1055q0 -90 60 -156.5t147 -77.5h49q88 11 148.5 77.5t60.5 156.5q0 92 -69.5 160.5t-163.5 68.5t-163 -68.5t-69 -160.5z" />
<glyph unicode="9" horiz-adv-x="1122" d="M88 979q0 186 132 310t323 124q189 0 320.5 -124t131.5 -310q0 -113 -51 -207l-381 -774h-176q174 347 281 569l-43 -12q-38 -10 -82 -10q-191 0 -323 124t-132 310zM256 977q0 -117 84.5 -202t202.5 -85q116 0 200 85t84 202t-84.5 203t-199.5 86q-118 0 -202.5 -85.5 t-84.5 -203.5z" />
<glyph unicode=":" horiz-adv-x="436" d="M82 88q0 47 33 79t80 32t79.5 -32t32.5 -79q0 -46 -32.5 -79.5t-79.5 -33.5t-80 33.5t-33 79.5zM82 920q0 46 33 78t80 32t79.5 -32t32.5 -78q0 -47 -32.5 -80t-79.5 -33t-80 33t-33 80z" />
<glyph unicode=";" horiz-adv-x="581" d="M82 -223l190 495q7 -3 43.5 -16t69.5 -25t39 -16q-192 -384 -238 -481q-9 3 -52.5 21t-51.5 22zM225 918q0 46 33 78t80 32q46 0 78.5 -32t32.5 -78q0 -47 -32.5 -80t-78.5 -33q-47 0 -80 33t-33 80z" />
<glyph unicode="&#x3c;" horiz-adv-x="1220" d="M145 547v158q74 41 452.5 245.5t451.5 245.5v-145l-783 -428q333 -183 783 -424v-144q-79 44 -452 246t-452 246z" />
<glyph unicode="=" horiz-adv-x="1222" d="M145 344v119h893v-119h-893zM145 782v119h893v-119h-893z" />
<glyph unicode="&#x3e;" horiz-adv-x="1220" d="M145 55v144q65 35 392 212t391 212l-783 428v145q86 -48 476.5 -259.5t427.5 -231.5v-158q-79 -44 -452 -246t-452 -246z" />
<glyph unicode="?" horiz-adv-x="987" d="M145 1389q38 25 109.5 46t136.5 21q90 0 162.5 -26t117 -65.5t74 -89.5t41 -94t11.5 -83q0 -193 -107 -314q-35 -39 -84.5 -84t-75.5 -71.5t-54 -69t-39.5 -101t-12.5 -143.5h-139q0 34 0.5 49.5t3 60t11 75.5t21.5 71.5t36.5 75.5t54.5 62q70 61 106 96t70 79.5 t46.5 88.5t12.5 100q0 113 -69.5 182.5t-186.5 69.5q-30 0 -63.5 -8t-56 -17t-45.5 -20t-27 -12q-39 85 -54 121zM242 96q0 44 31 75.5t75 31.5q49 0 80 -31t31 -76q0 -47 -31 -77.5t-80 -30.5q-45 0 -75.5 30.5t-30.5 77.5z" />
<glyph unicode="@" horiz-adv-x="1656" d="M82 711q0 218 95 383t265 253.5t392 88.5q332 0 528.5 -197t196.5 -528q0 -196 -89.5 -324.5t-236.5 -128.5q-49 0 -88.5 14t-62.5 34t-38 44.5t-20.5 43t-5.5 32.5v49q-103 -127 -244 -127q-151 0 -255.5 105.5t-104.5 261.5q0 159 104 265.5t256 106.5 q80 0 136.5 -35.5t107.5 -93.5v113h106v-596q5 -123 111 -123q24 0 50 8t58.5 32.5t57.5 62.5t42 104.5t17 151.5q0 98 -23.5 189.5t-73.5 173t-122.5 142t-177 95.5t-229.5 35q-136 0 -247.5 -37.5t-185 -99.5t-123.5 -145.5t-72 -172t-22 -182.5q0 -89 23.5 -178.5 t75.5 -175.5t126.5 -152t185 -106t241.5 -40q110 3 215 34t155 59l31 -89q-3 -1 -24.5 -10t-39.5 -16t-48.5 -17.5t-62 -18.5t-67.5 -16t-76.5 -12t-80.5 -4q-144 0 -267.5 39.5t-212.5 109t-152 163.5t-93.5 203.5t-30.5 228.5zM524 717q0 -116 69 -195.5t177 -79.5 q113 0 180.5 79t67.5 196q0 118 -68 197t-180 79q-108 0 -177 -80t-69 -196z" />
<glyph unicode="A" horiz-adv-x="1341" d="M33 0q96 252 534 1434h178l537 -1434h-166l-104 274h-709l-104 -274h-166zM358 412h600l-303 811z" />
<glyph unicode="B" horiz-adv-x="1150" d="M137 0q0 17 0.5 257t1 579.5t0.5 597.5h387q172 0 278.5 -98t106.5 -275q0 -161 -106 -283q112 -54 177 -147.5t65 -214.5q0 -189 -114 -302.5t-298 -113.5h-498zM300 147h349q97 0 165.5 76.5t68.5 192.5t-67.5 184t-166.5 68h-349v-521zM300 815h243q29 0 47 12 q72 13 112.5 75.5t40.5 158.5q0 110 -59 167.5t-154 57.5h-230v-471z" />
<glyph unicode="C" horiz-adv-x="1284" d="M76 717q0 153 58.5 291t157.5 237t236.5 157t290.5 58q185 0 346 -84v-186q-137 113 -350 113q-162 0 -292 -78t-201.5 -211.5t-71.5 -296.5q0 -120 42.5 -227.5t116 -186t179.5 -124.5t227 -46q213 0 350 113v-187q-30 -15 -69.5 -31t-119.5 -33.5t-157 -17.5 q-204 0 -374.5 97.5t-269.5 267.5t-99 375z" />
<glyph unicode="D" horiz-adv-x="1343" d="M137 2v1010v424q62 0 183.5 -1t181.5 -1q105 0 209 -29t199.5 -89t169 -143.5t117.5 -201.5t44 -254q0 -141 -43 -260.5t-115.5 -202t-168 -141t-200 -86t-212.5 -27.5q-306 0 -365 2zM303 147v3q12 0 73.5 -1.5t104.5 -1.5q117 0 222.5 38.5t187 109t129 179.5t47.5 241 q0 136 -47.5 246t-129 180t-186.5 107.5t-223 37.5h-178v-1139z" />
<glyph unicode="E" horiz-adv-x="1099" d="M137 0v1434h2h822v-148h-658v-444h612v-148h-612v-547h658v-147h-824z" />
<glyph unicode="F" horiz-adv-x="1046" d="M137 0v1436q2 0 2 2h799v-150h-635v-446h590v-148h-590v-694h-166z" />
<glyph unicode="G" horiz-adv-x="1595" d="M76 717q0 153 58.5 291t157.5 237t236.5 157t290.5 58q150 0 283.5 -54.5t234.5 -150.5q-3 -6 -20 -24t-33 -34t-36 -35.5t-21 -20.5q-154 168 -412 168q-162 0 -292.5 -79.5t-201.5 -214.5t-71 -298q0 -159 75 -295t202.5 -215.5t275.5 -79.5q214 0 344 122t160 331 h-328v145h506v-47q-3 -199 -85 -357.5t-236.5 -251t-356.5 -92.5q-148 0 -283.5 58.5t-233.5 158t-156 236.5t-58 287z" />
<glyph unicode="H" horiz-adv-x="1341" d="M137 0v1438h166v-596h711v596h166v-1438h-166v692h-711v-692h-166z" />
<glyph unicode="I" horiz-adv-x="448" d="M137 0v1438h166v-1438h-166z" />
<glyph unicode="J" horiz-adv-x="817" d="M72 39l67 133q90 -45 154 -45q43 0 76 10.5t55 26.5t38 45t24.5 56.5t13 71t5.5 78t1 87.5v936h166v-1024q0 -98 -19 -174.5t-61 -137t-117.5 -93t-181.5 -32.5q-19 0 -40 2.5t-41.5 8t-37.5 10.5t-35.5 12.5t-29 12t-23.5 10.5t-14 6z" />
<glyph unicode="K" horiz-adv-x="1320" d="M137 0v1436h166v-742q282 369 574 740h208l-487 -615q87 -114 333.5 -427t311.5 -392h-211q-39 49 -245 306.5t-300 375.5l-184 -233v-449h-166z" />
<glyph unicode="L" horiz-adv-x="954" d="M137 0v1436h166v-1289h565v-147h-729h-2z" />
<glyph unicode="M" horiz-adv-x="1753" d="M137 0v1436h254l469 -1248l467 1248h254v-1436h-166v1221l-467 -1219h-176l-469 1219v-1221h-166z" />
<glyph unicode="N" horiz-adv-x="1437" d="M137 0v1434h205l766 -1209v1209h164v-1434h-205l-764 1198v-1198h-166z" />
<glyph unicode="O" horiz-adv-x="1667" d="M74 717q0 151 60 289t160.5 237.5t237.5 158t285 58.5q198 0 369.5 -99t274 -270.5t102.5 -373.5q0 -151 -60.5 -288.5t-161.5 -236.5t-238.5 -158t-285.5 -59t-285 59t-237.5 158t-160.5 236.5t-60 288.5zM246 717q0 -164 74 -299t206 -213t293 -78t292.5 78t205.5 213 t74 299q0 167 -74 302.5t-205 212.5t-293 77t-293 -77t-205.5 -212.5t-74.5 -302.5z" />
<glyph unicode="P" horiz-adv-x="1116" d="M137 2v1434h424q72 0 143.5 -18t137 -55.5t115.5 -90t80 -127.5t30 -162q0 -90 -31 -166.5t-82 -129t-117.5 -89.5t-136.5 -54.5t-139 -17.5h-258v-524h-166zM303 672q88 0 131 2q76 -2 101 -2q155 0 258.5 79t103.5 226q0 151 -103.5 232t-258.5 81h-232v-102v-516z" />
<glyph unicode="Q" horiz-adv-x="1679" d="M76 719q0 201 101.5 372.5t272.5 271t369 99.5t369.5 -99.5t274 -271t102.5 -372.5q0 -109 -33 -211t-84.5 -176t-103 -125t-99.5 -78h291v-152h-717q-148 0 -285 58.5t-237.5 157.5t-160.5 237t-60 289zM250 719q0 -165 74 -300t205 -212.5t292 -77.5h23 q155 5 280.5 83.5t196 212t70.5 294.5q0 167 -73.5 302t-204 211.5t-292.5 76.5t-292.5 -76.5t-204.5 -211.5t-74 -302z" />
<glyph unicode="R" d="M147 0v1436h424q72 0 143.5 -18t137 -55.5t115.5 -90t80 -127.5t30 -162q0 -149 -78 -254t-202 -156l288 -573h-184l-270 526q-20 -2 -60 -2h-258v-524h-166zM313 672h232q155 0 258.5 79t103.5 226q0 151 -103.5 232t-258.5 81h-232v-102v-516z" />
<glyph unicode="S" horiz-adv-x="1032" d="M86 162q6 9 61 46.5t60 43.5q41 -49 110 -87t140 -42h12q114 0 199.5 72t85.5 188q0 39 -10 73t-23.5 60t-42.5 53.5t-50.5 44.5t-65 42t-69.5 38t-79 39q-144 69 -211.5 149.5t-67.5 209.5q0 68 27.5 132.5t78 117t130 84.5t174.5 32h26h27q141 -11 236 -92l-115 -117 q-73 52 -160 60h-6q-92 0 -166 -66t-74 -162q0 -34 13 -63.5t32.5 -49.5t52.5 -41t61.5 -35t71.5 -35.5t72 -37.5q95 -53 158 -108t94.5 -111t43.5 -106.5t12 -112.5q0 -166 -126.5 -285t-316.5 -119q-80 0 -151.5 19.5t-119.5 49.5t-79 60t-45 56z" />
<glyph unicode="T" horiz-adv-x="1079" d="M39 1288v148h981v-148h-410v-1288h-166v1288h-405z" />
<glyph unicode="U" horiz-adv-x="1376" d="M119 440v996h168v-996q0 -129 104 -220t258 -91q92 0 182.5 41t150.5 114t60 156v996h170v-1436h-168v176q-17 -25 -46.5 -53.5t-79 -64t-122 -58.5t-153.5 -23q-230 0 -377 135t-147 328z" />
<glyph unicode="V" horiz-adv-x="1292" d="M27 1434h170l440 -1235q142 408 436 1235h164l-506 -1434h-186q-80 219 -518 1434z" />
<glyph unicode="W" horiz-adv-x="2033" d="M39 1436h170l323 -1241l369 1241h189q166 -558 372 -1241q66 267 322 1241h170l-381 -1436h-215l-363 1196l-360 -1196h-213z" />
<glyph unicode="X" horiz-adv-x="1394" d="M66 0l520 770l-449 668h195l352 -523q115 166 352 523h195l-451 -668l523 -770h-197l-422 627q-204 -300 -422 -627h-196z" />
<glyph unicode="Y" horiz-adv-x="1280" d="M29 1434h178l420 -789l422 789h178l-516 -959v-475h-166v475z" />
<glyph unicode="Z" horiz-adv-x="1271" d="M102 0v162l824 1124h-760v148h948v-162l-821 -1125h852v-147h-1043z" />
<glyph unicode="[" horiz-adv-x="653" d="M125 -397v1835q2 0 2 2h408v-129h-265v-1577h265v-131h-410z" />
<glyph unicode="\" horiz-adv-x="1155" d="M82 1417h190l725 -1415h-190q-702 1371 -725 1415z" />
<glyph unicode="]" horiz-adv-x="653" d="M125 -266h264v1577h-264v129h405q5 0 5 -1837h-410v131z" />
<glyph unicode="^" horiz-adv-x="774" d="M125 1526q18 22 128 153t132 158q18 -22 72 -88.5t111.5 -138t68.5 -84.5h-129l-121 162l-131 -162h-131z" />
<glyph unicode="_" horiz-adv-x="1282" d="M82 -143h1083v-88h-1083v88z" />
<glyph unicode="`" horiz-adv-x="618" d="M125 1448h184l174 -258h-131z" />
<glyph unicode="a" horiz-adv-x="1212" d="M68 498q0 231 138 379.5t345 148.5q73 0 136.5 -18.5t102.5 -44t69.5 -56t43 -49.5t17.5 -31v174h151v-1001h-151v178q-4 -13 -17 -33.5t-43 -50.5t-69 -55.5t-102 -43.5t-136 -18q-206 0 -345.5 148t-139.5 373zM229 502q0 -165 95.5 -276t250.5 -111q146 0 238.5 95.5 t106.5 244.5v94q-14 146 -107 242t-238 96q-155 0 -250.5 -110.5t-95.5 -274.5z" />
<glyph unicode="b" horiz-adv-x="1212" d="M117 0v1556h151v-729q7 19 29.5 47.5t65 65t115 61.5t159.5 25q207 0 345 -148.5t138 -379.5q0 -225 -139.5 -373t-343.5 -148q-71 0 -133 17.5t-101.5 42t-70.5 55t-45 51.5t-19 35v-178h-151zM268 455q14 -149 106.5 -244.5t237.5 -95.5q155 0 250.5 111t95.5 276 q0 164 -95.5 274.5t-250.5 110.5q-145 0 -237.5 -96t-106.5 -242v-94z" />
<glyph unicode="c" horiz-adv-x="899" d="M68 504q0 226 156 374t384 148q35 0 72.5 -7t75.5 -17l39 -11v-153l-33 18q-80 31 -150 31q-158 0 -271.5 -112.5t-113.5 -272.5q0 -157 114 -270t271 -113q77 0 140 24l43 17v-150q-103 -28 -187 -28q-228 0 -384 148t-156 374z" />
<glyph unicode="d" horiz-adv-x="1212" d="M68 498q0 231 137.5 378.5t345.5 147.5q87 0 159.5 -24.5t114.5 -60.5t64.5 -64t30.5 -48v729h151v-1556h-151v178q-5 -15 -19.5 -37t-46 -51.5t-71 -54t-101 -41.5t-131.5 -17q-204 0 -343.5 148t-139.5 373zM229 502q0 -165 95.5 -276t250.5 -111q146 0 238.5 95.5 t106.5 244.5v94q-14 146 -107 242t-238 96q-155 0 -250.5 -110.5t-95.5 -274.5z" />
<glyph unicode="e" horiz-adv-x="1075" d="M61 510q0 242 126.5 379t340.5 137q215 0 334 -136.5t119 -383.5v-33h-762q0 -89 38 -169t116 -133.5t180 -53.5q132 0 293 100l72 -115q-177 -122 -381 -122q-92 0 -176.5 35.5t-152 100.5t-107.5 167.5t-40 226.5zM225 604h600q0 129 -90.5 210t-210.5 81 q-72 0 -139 -32t-113.5 -100.5t-46.5 -158.5z" />
<glyph unicode="f" horiz-adv-x="661" d="M35 868v133h164v52q0 116 20 203.5t65.5 156t125.5 105.5t194 41v-144q-74 -3 -122.5 -28t-75 -76t-36.5 -115.5t-10 -159.5v-35h261v-6v-127h-261v-868h-155q0 41 -2 374.5t-2 493.5h-166z" />
<glyph unicode="g" horiz-adv-x="1210" d="M68 498q0 230 140 379t347 149q66 0 125 -17t97 -39.5t70 -52.5t46.5 -49.5t24.5 -36.5v170h155v-1028q0 -143 -57 -257t-169 -182.5t-261 -68.5q-75 0 -140.5 19.5t-111 50t-84 71.5t-61 78t-40 76.5t-24.5 61.5t-10 37h153q2 -4 10 -21t13.5 -28t17.5 -31t22.5 -34.5 t27 -34t32.5 -33t38.5 -28t45.5 -23.5t52.5 -15t60.5 -6q139 0 234.5 104.5t95.5 282.5v182q-11 -23 -35.5 -52t-67.5 -64t-111.5 -58t-148.5 -23q-204 0 -345.5 148.5t-141.5 372.5zM229 502q0 -165 94.5 -276t249.5 -111q146 0 238.5 95.5t106.5 244.5v94 q-14 146 -107 242t-238 96q-155 0 -249.5 -110.5t-94.5 -274.5z" />
<glyph unicode="h" horiz-adv-x="1153" d="M115 0v1556h155v-692q116 160 340 160q406 0 406 -440q0 -98 -1 -292t-1 -292h-156v563q0 88 -25 152t-68.5 99t-93.5 51t-108 16q-37 0 -74.5 -9.5t-76 -31.5t-69 -54t-50.5 -82.5t-23 -111.5v-592h-155z" />
<glyph unicode="i" horiz-adv-x="460" d="M115 1354q0 48 32.5 80t81.5 32q47 0 79 -32.5t32 -79.5t-32 -79t-79 -32q-49 0 -81.5 32t-32.5 79zM141 0v1001h158v-1001h-158z" />
<glyph unicode="j" horiz-adv-x="466" d="M117 1354q0 48 32.5 80t81.5 32q47 0 79 -32.5t32 -79.5t-32 -79t-79 -32q-49 0 -81.5 32t-32.5 79zM141 -532v1533h158v-1533h-158z" />
<glyph unicode="k" horiz-adv-x="1157" d="M117 0v1556h155v-938l459 383h217l-379 -329l531 -672h-195l-456 569l-177 -155v-414h-155z" />
<glyph unicode="l" horiz-adv-x="395" d="M117 0v1556h155v-1556h-155z" />
<glyph unicode="m" horiz-adv-x="1816" d="M117 0v1001h153v-153q41 72 125 124t205 52q70 0 130.5 -21t99 -54.5t62.5 -66.5t34 -65q50 92 146.5 149.5t225.5 57.5q175 0 273 -115.5t98 -324.5q0 -98 -1 -292t-1 -292h-156v565q0 170 -67.5 244t-192.5 74q-51 0 -98 -17t-89 -52t-67.5 -99.5t-25.5 -149.5v-565 h-158v565q0 318 -258 318q-49 0 -94.5 -14.5t-86.5 -45t-69 -84t-35 -125.5v-614h-153z" />
<glyph unicode="n" horiz-adv-x="1153" d="M117 0v1001h155v-151q49 75 136 125.5t206 50.5q198 0 302 -115t104 -327q0 -98 -1 -292t-1 -292h-156v565q0 89 -24.5 154t-67.5 100t-93 50.5t-110 15.5q-48 0 -95.5 -16t-92 -48.5t-74 -91t-33.5 -133.5v-596h-155z" />
<glyph unicode="o" horiz-adv-x="1241" d="M61 506q0 150 72 270.5t195.5 187t273.5 66.5q149 0 275 -66.5t202 -187.5t76 -270q0 -152 -76 -274.5t-202 -189.5t-275 -67q-150 0 -273.5 67t-195.5 189.5t-72 274.5zM223 504q0 -159 114 -274t271 -115q160 0 273.5 114.5t113.5 274.5t-113.5 273.5t-273.5 113.5 q-157 0 -271 -114t-114 -273z" />
<glyph unicode="p" horiz-adv-x="1212" d="M117 -545v1544h151v-174q6 16 20.5 37.5t46 52t71 55.5t100.5 42.5t131 17.5q97 0 185 -38t154 -105t105 -164t39 -209q0 -232 -135.5 -381t-347.5 -149q-71 0 -133 16.5t-101.5 40t-70 53t-44.5 50t-20 36.5v-725h-151zM268 459q14 -147 106.5 -242.5t237.5 -95.5 q155 0 250.5 110.5t95.5 274.5q0 165 -95.5 276t-250.5 111q-145 0 -237.5 -95.5t-106.5 -244.5v-94z" />
<glyph unicode="q" horiz-adv-x="1212" d="M68 512q0 112 38.5 209t104 164.5t154.5 106t188 38.5q86 0 158 -25t114 -62t64.5 -66t30.5 -50v174h151v-1548h-151v725q-7 -16 -21.5 -37.5t-46 -50.5t-70.5 -52t-99.5 -39.5t-129.5 -16.5q-207 0 -346 150t-139 380zM229 504q0 -164 95.5 -274.5t250.5 -110.5 q145 0 238 95.5t107 242.5v94q-14 149 -106.5 244.5t-238.5 95.5q-155 0 -250.5 -111t-95.5 -276z" />
<glyph unicode="r" horiz-adv-x="698" d="M115 0v1001h155v-153q132 176 330 176q4 0 96 -8l-32 -156q-69 12 -101 12q-132 0 -209.5 -79t-83.5 -236v-557h-155z" />
<glyph unicode="s" horiz-adv-x="778" d="M68 119q58 48 106 80q93 -93 191 -93q23 0 48.5 6t56 20.5t50 46t19.5 75.5q0 63 -53.5 115t-184.5 125q-99 56 -145.5 114t-46.5 129v33q0 98 76 176t208 78q79 0 139.5 -22t92.5 -54q0 -2 -58 -74l-28 -36q-76 53 -146 53q-48 0 -89.5 -31.5t-41.5 -95.5q0 -20 4.5 -37 t20 -35t27 -29.5t43 -32.5t49 -31.5t63.5 -37.5q121 -72 168 -144t47 -165q0 -109 -88.5 -190.5t-228.5 -81.5q-114 0 -189.5 43t-109.5 96z" />
<glyph unicode="t" horiz-adv-x="581" d="M82 866v135h106v316h158v-316h170v-32v2v-105h-170v-866h-158v866h-106z" />
<glyph unicode="u" horiz-adv-x="1142" d="M98 422q0 98 1 290.5t1 288.5h154v-561q0 -321 299 -321q42 0 81.5 9t79.5 32t69.5 58t48 92t18.5 130v561h156v-1001h-156v145q-47 -73 -132.5 -120.5t-203.5 -47.5q-203 0 -309.5 121t-106.5 324z" />
<glyph unicode="v" horiz-adv-x="974" d="M20 1001h158l293 -813q235 664 291 813h162l-363 -1001h-178z" />
<glyph unicode="w" horiz-adv-x="1658" d="M39 1001h156l270 -806q38 116 112.5 347.5t112.5 346.5l37 112h176l-2 -2l264 -806q199 598 271 808h155l-342 -1001h-172q-43 134 -131 402.5t-131 402.5l-264 -805h-172q-58 167 -170 500.5t-170 500.5z" />
<glyph unicode="x" horiz-adv-x="1052" d="M14 0l410 545l-344 456h182l252 -335l254 335h186l-346 -456l410 -545h-184l-320 422l-315 -422h-185z" />
<glyph unicode="y" horiz-adv-x="1067" d="M16 1001h168l346 -815q137 356 316 815h166q-74 -187 -212.5 -527t-183.5 -451l-227 -566h-168l223 551q-48 112 -428 993z" />
<glyph unicode="z" horiz-adv-x="1062" d="M78 0v145l670 723h-627v133h813v-141l-670 -725h692v-135h-878z" />
<glyph unicode="{" horiz-adv-x="808" d="M125 494v94q101 6 141.5 61t40.5 156v371q0 57 12 103t30 76t46 52t54 33.5t60.5 18t59 8t54.5 1.5h41v-98q-66 -1 -111 -12t-69.5 -26t-37 -42.5t-15.5 -51t-3 -62.5v-371q0 -68 -12 -118.5t-52 -92.5t-108 -53q172 -32 172 -265v-380q0 -37 3 -60.5t16 -50.5t37.5 -43 t69.5 -27t110 -12v-98h-37q-320 0 -320 291v380q0 210 -182 218z" />
<glyph unicode="|" horiz-adv-x="405" d="M125 -528v2068h129v-2068h-129z" />
<glyph unicode="}" horiz-adv-x="808" d="M125 -297q65 1 110 12.5t69 26.5t37 43t16 51t3 60v380q0 49 7 88t24 77.5t52.5 64t86.5 35.5q-51 8 -86.5 33t-52.5 63t-24 78t-7 90v371q0 39 -2.5 62.5t-15.5 51t-37 42.5t-69 26t-111 12v98h41q30 0 54 -1.5t58.5 -8t60.5 -18t54 -33.5t46 -52t30 -76t12 -103v-371 q0 -100 41.5 -156.5t141.5 -60.5v-94q-101 -6 -142 -62t-41 -156v-380q0 -291 -319 -291h-37v98z" />
<glyph unicode="~" horiz-adv-x="1099" d="M143 1262q55 75 100 101t93 26h24q35 -4 171 -49.5t167 -45.5q42 0 75.5 20t70.5 58l110 -51q-57 -76 -100.5 -111t-91.5 -41h-33q-55 4 -202 52.5t-175 48.5q-19 0 -34 -3.5t-29.5 -13.5t-21.5 -16t-24.5 -24.5t-23.5 -24.5z" />
<glyph unicode="&#xa1;" horiz-adv-x="501" d="M125 1190q0 48 34 81.5t83 33.5q50 0 83 -33.5t33 -81.5q0 -50 -32.5 -83.5t-83.5 -33.5q-50 0 -83.5 33.5t-33.5 83.5zM158 -168v1012h155v-1012h-155z" />
<glyph unicode="&#xa8;" horiz-adv-x="1097" d="M125 1364q0 54 36.5 90.5t90.5 36.5t90.5 -36.5t36.5 -90.5t-36.5 -89.5t-90.5 -35.5t-90.5 35.5t-36.5 89.5zM678 1364q0 54 37 90.5t92 36.5q54 0 89.5 -36.5t35.5 -90.5t-35.5 -89.5t-89.5 -35.5q-56 0 -92.5 35.5t-36.5 89.5z" />
<glyph unicode="&#xaa;" horiz-adv-x="714" d="M61 991q0 121 72.5 200t177.5 79q21 0 40.5 -3t35 -8.5t29.5 -12.5t25 -15t20 -15.5t15.5 -14.5t11 -12.5t6.5 -8.5l2 -2v79h116v-534h-116v82q-2 -4 -6.5 -10t-21.5 -22.5t-36.5 -29t-52 -22.5t-68.5 -10q-102 0 -176 79t-74 201zM184 991q0 -75 44 -126.5t114 -51.5 q66 0 109.5 45t46.5 111v45q-3 66 -46.5 109.5t-109.5 43.5q-71 0 -114.5 -50.5t-43.5 -125.5z" />
<glyph unicode="&#xac;" horiz-adv-x="1001" d="M104 575v101h770v-62h3v-243h-105v204h-668z" />
<glyph unicode="&#xad;" horiz-adv-x="710" d="M145 467v127h396v-4q0 -4 -1 -12t-1 -11v-100h-394z" />
<glyph unicode="&#xb0;" horiz-adv-x="835" d="M104 1081q0 115 86.5 197t202.5 82t202.5 -82t86.5 -197t-86 -196.5t-203 -81.5t-203 81.5t-86 196.5zM203 1081q0 -82 54.5 -139t135.5 -57t136 57t55 139t-55 139.5t-136 57.5t-135.5 -57.5t-54.5 -139.5z" />
<glyph unicode="&#xb1;" horiz-adv-x="1304" d="M125 113v102h1020v-102h-1020zM125 635v113h450v249h127v-249h443v-113h-443v-277h-127v277h-450z" />
<glyph unicode="&#xb4;" horiz-adv-x="657" d="M104 1190l172 258h185l-225 -258h-132z" />
<glyph unicode="&#xb5;" horiz-adv-x="1185" d="M125 -535v1237q0 48 1 148.5t1 148.5h154v-563q0 -77 18.5 -135t48 -92.5t70.5 -55.5t79.5 -28.5t82.5 -7.5q48 0 94.5 14.5t93 46t76.5 94t33 146.5v581h157v-999h-157v119q-109 -142 -320 -142q-89 0 -161 31t-117 74v-617h-154z" />
<glyph unicode="&#xb7;" horiz-adv-x="442" d="M125 860q0 31 21 51.5t53 20.5q31 0 51 -20.5t20 -51.5t-20.5 -52.5t-50.5 -21.5q-32 0 -53 21.5t-21 52.5z" />
<glyph unicode="&#xb8;" horiz-adv-x="587" d="M72 -395l188 303h211l-260 -303h-139z" />
<glyph unicode="&#xba;" horiz-adv-x="774" d="M61 1006q0 119 92 204.5t214 85.5q121 0 213 -85.5t92 -204.5t-92 -205t-213 -86t-213.5 86t-92.5 205zM203 1006q0 -71 47 -120.5t117 -49.5t116.5 49.5t46.5 120.5t-46.5 120.5t-116.5 49.5t-117 -49.5t-47 -120.5z" />
<glyph unicode="&#xbf;" horiz-adv-x="935" d="M131 -115q0 191 107 312q38 42 88 89t75 72.5t52 67.5t38 99.5t13 142.5h139q0 -34 -0.5 -50t-3 -60.5t-11 -75.5t-21.5 -72t-36.5 -76t-54.5 -62q-70 -61 -106 -96t-70 -79.5t-46.5 -88t-12.5 -98.5q0 -114 69.5 -183t186.5 -69q53 0 108 19.5t84 37.5q30 -65 53 -121 q-42 -28 -111 -47.5t-134 -19.5q-90 0 -162.5 26t-117 65.5t-74 89.5t-41 94t-11.5 83zM469 887q0 46 31 77t80 31q44 0 75 -31t31 -77q0 -44 -31 -75.5t-75 -31.5q-49 0 -80 31t-31 76z" />
<glyph unicode="&#xc0;" horiz-adv-x="1261" d="M18 0q50 132 263.5 727t255.5 707h176q44 -118 256 -712t260 -722h-164q-5 14 -46.5 130.5t-53.5 143.5h-682l-99 -274h-166zM336 416h579l-292 803q-155 -430 -287 -803zM412 1829h184q86 -129 174 -258h-131q-84 92 -227 258z" />
<glyph unicode="&#xc1;" horiz-adv-x="1261" d="M18 0q50 132 263.5 727t255.5 707h176q44 -118 256 -712t260 -722h-164q-5 14 -46.5 130.5t-53.5 143.5h-682l-99 -274h-166zM336 416h579l-292 803q-155 -430 -287 -803zM475 1571l174 258h185l-228 -258h-131z" />
<glyph unicode="&#xc2;" horiz-adv-x="1261" d="M18 0q50 132 263.5 727t255.5 707h174q51 -139 263.5 -732.5t252.5 -701.5h-164q-9 23 -49 137t-49 137h-682l-101 -274h-164zM334 416h581l-294 803q-132 -373 -287 -803zM362 1526l263 311l249 -311h-137l-112 151q-8 -10 -121 -151h-142z" />
<glyph unicode="&#xc3;" horiz-adv-x="1263" d="M18 0q50 132 263.5 727t255.5 707h176q44 -118 256 -712t260 -722h-164q-5 14 -46.5 130.5t-53.5 143.5h-682l-99 -274h-166zM190 1645q98 131 211 131q33 0 183.5 -50.5t181.5 -50.5q12 0 22.5 2t18 4t17.5 8.5t14.5 9t15.5 13t14 13.5t15.5 17t15.5 17l119 -55 q-65 -87 -115.5 -123.5t-107.5 -36.5q-41 0 -198 53.5t-189 53.5q-16 0 -30.5 -4t-24.5 -8.5t-23 -15.5t-19 -16.5t-21 -22t-20 -21.5zM336 416h579l-292 803q-155 -430 -287 -803z" />
<glyph unicode="&#xc4;" horiz-adv-x="1261" d="M16 0q50 132 263.5 727t255.5 707h176q44 -118 256 -712t260 -722h-164q-5 14 -46.5 130.5t-53.5 143.5h-682l-99 -274h-166zM260 1698q0 54 36.5 90.5t90.5 36.5t90.5 -36.5t36.5 -90.5t-36.5 -89.5t-90.5 -35.5t-90.5 35.5t-36.5 89.5zM334 416h579l-292 803 q-155 -430 -287 -803zM729 1698q0 54 36.5 90.5t90.5 36.5t90.5 -36.5t36.5 -90.5t-36.5 -89.5t-90.5 -35.5t-90.5 35.5t-36.5 89.5z" />
<glyph unicode="&#xc5;" horiz-adv-x="1263" d="M18 0q50 132 263.5 727t255.5 707h176q44 -118 256 -712t260 -722h-164q-5 14 -46.5 130.5t-53.5 143.5h-682l-99 -274h-166zM336 416h579l-292 803q-155 -430 -287 -803zM451 1667q0 68 52 117t122 49q71 0 122.5 -48.5t51.5 -117.5t-51.5 -117.5t-122.5 -48.5 q-70 0 -122 49t-52 117zM522 1667q0 -43 30.5 -74.5t72.5 -31.5t72 31.5t30 74.5q0 44 -29.5 75.5t-72.5 31.5t-73 -31.5t-30 -75.5z" />
<glyph unicode="&#xc6;" horiz-adv-x="1902" d="M55 4q147 264 762 1387h903v-142h-628v-432h583v-143h-583v-533h628v-141h-796v266h-549q-141 -253 -146 -262h-174zM438 395h486v162q0 67 -3.5 271.5t-2.5 283.5v133q-16 -3 -41 -22q-72 -137 -245 -462.5t-194 -365.5z" />
<glyph unicode="&#xc7;" horiz-adv-x="1347" d="M104 707q0 151 58 287t157 233.5t236 155t289 57.5q33 0 66.5 -3t60.5 -8t55.5 -12.5t48.5 -14t42 -14.5t33 -13t24 -11l14 -6v-184q-144 116 -348 116q-162 0 -291.5 -78t-201 -211t-71.5 -294q0 -159 71.5 -291.5t201.5 -211.5t291 -79q203 0 348 117v-185 q-6 -2 -49.5 -18.5t-78.5 -28t-96 -22.5t-120 -11q-152 0 -289 57t-236 154t-157 232.5t-58 286.5zM498 -393l188 303h211q-29 -34 -260 -303h-139z" />
<glyph unicode="&#xc8;" horiz-adv-x="1204" d="M178 0v1434h821v-148h-657v-444h614v-148h-614v-547h657v-147h-821zM344 1829h184l174 -258h-131q-46 50 -124 140t-103 118z" />
<glyph unicode="&#xc9;" horiz-adv-x="1204" d="M178 0v1434h821v-148h-657v-444h614v-148h-614v-547h657v-147h-821zM434 1571l172 258h185l-226 -258h-131z" />
<glyph unicode="&#xca;" horiz-adv-x="1204" d="M178 0v1434h821v-148h-657v-444h614v-148h-614v-547h657v-147h-821zM328 1526q51 62 136 163t124 148l252 -311h-140l-110 151l-123 -151h-139z" />
<glyph unicode="&#xcb;" horiz-adv-x="1204" d="M178 0v1434h821v-148h-657v-444h614v-148h-614v-547h657v-147h-821zM217 1698q0 54 37 90.5t92 36.5q54 0 89.5 -36.5t35.5 -90.5t-35.5 -89.5t-89.5 -35.5q-56 0 -92.5 35.5t-36.5 89.5zM686 1698q0 54 37.5 90.5t91.5 36.5q53 0 90 -36.5t37 -90.5q0 -53 -37 -89 t-90 -36q-54 0 -91.5 35.5t-37.5 89.5z" />
<glyph unicode="&#xcc;" horiz-adv-x="591" d="M41 1829h184l174 -258h-131q-80 85 -227 258zM197 0v1438h163v-1438h-163z" />
<glyph unicode="&#xcd;" horiz-adv-x="679" d="M125 1571l172 258h184l-225 -258h-131zM164 0v1438h164v-1438h-164z" />
<glyph unicode="&#xce;" horiz-adv-x="854" d="M125 1526q10 12 260 311q18 -22 72 -88.5t111.5 -138t68.5 -84.5h-139l-111 151l-121 -151h-141zM305 0v1438h164v-1438h-164z" />
<glyph unicode="&#xcf;" horiz-adv-x="991" d="M125 1698q0 54 36.5 90.5t90.5 36.5t90.5 -36.5t36.5 -90.5t-36.5 -89.5t-90.5 -35.5t-90.5 35.5t-36.5 89.5zM403 0v1438h166v-1438h-166zM594 1698q0 54 37 90.5t92 36.5q53 0 89 -36.5t36 -90.5t-36 -89.5t-89 -35.5q-56 0 -92.5 35.5t-36.5 89.5z" />
<glyph unicode="&#xd0;" horiz-adv-x="1372" d="M20 612v140h187v663h352q104 0 207.5 -28.5t199 -87.5t168.5 -141t116.5 -198.5t43.5 -250.5q0 -139 -43 -257t-115 -200t-167 -140t-199 -85t-211 -27q-293 0 -352 2v610h-187zM371 154v2q13 0 68.5 -1t97.5 -1q118 0 222.5 36.5t185.5 105t128 175t47 236.5 q0 134 -47 241t-128 174.5t-185.5 103.5t-222.5 36h-166v-510h194v-140h-194v-458z" />
<glyph unicode="&#xd1;" horiz-adv-x="1652" d="M248 0v1413h203l755 -1192v1192h162v-1413h-203l-753 1182v-1182h-164zM385 1655q44 61 98 93t103 32q32 0 176 -49.5t174 -49.5q15 0 28.5 3.5t21.5 6.5t21 14t17.5 15.5t20 21t20.5 21.5q25 -13 62 -30t49 -23q-62 -82 -110 -116.5t-103 -34.5q-39 0 -189 51t-182 51 q-18 0 -32.5 -3.5t-30.5 -15t-21 -16t-25 -25.5t-22 -24z" />
<glyph unicode="&#xd2;" horiz-adv-x="1679" d="M76 717q0 151 60 289t160.5 237.5t237.5 158t285 58.5q199 0 370.5 -99t273.5 -270.5t102 -373.5q0 -151 -60.5 -288.5t-161 -236.5t-238 -158t-286.5 -59q-148 0 -285 59t-237.5 158t-160.5 236.5t-60 288.5zM250 717q0 -164 74 -299t205.5 -213t291.5 -78 q162 0 293.5 78t205 213t73.5 299q0 125 -43.5 235t-118.5 188t-181.5 123.5t-228.5 45.5q-161 0 -291.5 -77t-205 -212.5t-74.5 -302.5zM569 1829h185l172 -258h-131q-135 150 -226 258z" />
<glyph unicode="&#xd3;" horiz-adv-x="1679" d="M76 717q0 151 60 289t160.5 237.5t237.5 158t285 58.5q199 0 370.5 -99t273.5 -270.5t102 -373.5q0 -151 -60.5 -288.5t-161 -236.5t-238 -158t-286.5 -59q-148 0 -285 59t-237.5 158t-160.5 236.5t-60 288.5zM250 717q0 -164 74 -299t205.5 -213t291.5 -78 q162 0 293.5 78t205 213t73.5 299q0 125 -43.5 235t-118.5 188t-181.5 123.5t-228.5 45.5q-161 0 -291.5 -77t-205 -212.5t-74.5 -302.5zM623 1571l174 258h182q-6 -7 -103.5 -119t-121.5 -139h-131z" />
<glyph unicode="&#xd4;" horiz-adv-x="1679" d="M76 717q0 151 60 289t160.5 237.5t237.5 158t285 58.5q199 0 370.5 -99t273.5 -270.5t102 -373.5q0 -151 -60.5 -288.5t-161 -236.5t-238 -158t-286.5 -59q-148 0 -285 59t-237.5 158t-160.5 236.5t-60 288.5zM250 717q0 -164 74 -299t205.5 -213t291.5 -78 q162 0 293.5 78t205 213t73.5 299q0 125 -43.5 235t-118.5 188t-181.5 123.5t-228.5 45.5q-161 0 -291.5 -77t-205 -212.5t-74.5 -302.5zM557 1526q18 22 128 153t132 158q33 -40 131 -160.5t121 -150.5h-139l-111 151l-121 -151h-141z" />
<glyph unicode="&#xd5;" horiz-adv-x="1648" d="M63 717q0 202 102 373.5t273 270.5t369 99q149 0 286 -58.5t238 -158t161 -237.5t60 -289t-60 -288.5t-161 -236t-238 -157t-286 -58.5q-148 0 -285 58.5t-237.5 157t-161 236t-60.5 288.5zM238 717q0 -164 74 -299t205.5 -213t291.5 -78q162 0 293 78t204.5 213 t73.5 299q0 167 -73.5 302.5t-204 212.5t-293.5 77q-161 0 -291.5 -77t-205 -212.5t-74.5 -302.5zM324 1653q38 52 72.5 82t60 39.5t57.5 11.5q23 0 37 -2q36 -4 177.5 -50t174.5 -46q44 0 79 20.5t73 60.5q25 -13 63 -30t53 -25q-63 -85 -113 -122.5t-104 -37.5 q-56 0 -220 53.5t-191 53.5q-12 0 -24 -2.5t-20 -4.5t-18.5 -9t-15.5 -10t-15.5 -14t-14 -14t-15 -17t-14.5 -17z" />
<glyph unicode="&#xd6;" horiz-adv-x="1679" d="M76 717q0 151 60 289t160.5 237.5t237.5 158t285 58.5q199 0 370.5 -99t273.5 -270.5t102 -373.5q0 -151 -60.5 -288.5t-161 -236.5t-238 -158t-286.5 -59q-148 0 -285 59t-237.5 158t-160.5 236.5t-60 288.5zM250 717q0 -164 74 -299t205.5 -213t291.5 -78 q162 0 293.5 78t205 213t73.5 299q0 125 -43.5 235t-118.5 188t-181.5 123.5t-228.5 45.5q-161 0 -291.5 -77t-205 -212.5t-74.5 -302.5zM453 1698q0 54 37 90.5t92 36.5q54 0 89.5 -36.5t35.5 -90.5t-35.5 -89.5t-89.5 -35.5q-56 0 -92.5 35.5t-36.5 89.5zM922 1698 q0 54 37 90.5t92 36.5q54 0 90.5 -36.5t36.5 -90.5t-36.5 -89.5t-90.5 -35.5q-56 0 -92.5 35.5t-36.5 89.5z" />
<glyph unicode="&#xd7;" horiz-adv-x="1294" d="M115 78l424 432l-424 432l84 80l422 -430q211 218 426 432l81 -80l-426 -434q212 -218 428 -434l-83 -82l-426 432q-423 -429 -424 -430z" />
<glyph unicode="&#xd8;" horiz-adv-x="1882" d="M121 717q0 151 60.5 289t161.5 237.5t238.5 158t286.5 58.5q151 0 293.5 -64t255.5 -177l236 227q4 -6 34.5 -40t32.5 -38l-237 -231q135 -204 135 -420q0 -150 -61 -288t-163 -237t-240 -158t-286 -59q-225 0 -438 144q-87 -87 -227 -219l-70 73l217 211 q-109 111 -169 247.5t-60 285.5zM299 717q0 -243 164 -424l840 815q-85 95 -196.5 148t-236.5 53q-162 0 -292.5 -77t-204.5 -212.5t-74 -302.5zM541 227q165 -100 329 -100q161 0 292 78t204.5 213t73.5 299q0 145 -78 307z" />
<glyph unicode="&#xd9;" horiz-adv-x="1470" d="M162 440v996h168v-998q0 -129 104 -220t256 -91q93 0 184 41t151 114t60 156v998h170v-1436h-168v176q-17 -22 -36.5 -42.5t-57.5 -51t-79.5 -52t-102.5 -37.5t-127 -16q-114 0 -212.5 37t-165.5 100t-105.5 147.5t-38.5 178.5zM463 1829h184l174 -258h-131 q-84 92 -227 258z" />
<glyph unicode="&#xda;" horiz-adv-x="1470" d="M162 440v996h168v-998q0 -129 104 -220t256 -91q93 0 184 41t151 114t60 156v998h170v-1436h-168v176q-17 -22 -36.5 -42.5t-57.5 -51t-79.5 -52t-102.5 -37.5t-127 -16q-114 0 -212.5 37t-165.5 100t-105.5 147.5t-38.5 178.5zM537 1571q85 129 174 258h182 q-31 -35 -104 -120t-121 -138h-131z" />
<glyph unicode="&#xdb;" horiz-adv-x="1470" d="M162 440v996h168v-998q0 -129 104 -220t256 -91q93 0 184 41t151 114t60 156v998h170v-1436h-168v176q-17 -22 -36.5 -42.5t-57.5 -51t-79.5 -52t-102.5 -37.5t-127 -16q-114 0 -212.5 37t-165.5 100t-105.5 147.5t-38.5 178.5zM446 1526q51 62 136 162t125 149l251 -311 h-139l-110 151l-123 -151h-140z" />
<glyph unicode="&#xdc;" horiz-adv-x="1470" d="M162 440v996h168v-998q0 -129 104 -220t256 -91q93 0 184 41t151 114t60 156v998h170v-1436h-168v176q-17 -22 -36.5 -42.5t-57.5 -51t-79.5 -52t-102.5 -37.5t-127 -16q-114 0 -212.5 37t-165.5 100t-105.5 147.5t-38.5 178.5zM326 1698q0 54 37 90.5t92 36.5 q54 0 90.5 -36.5t36.5 -90.5t-36.5 -89.5t-90.5 -35.5q-56 0 -92.5 35.5t-36.5 89.5zM795 1698q0 54 37.5 90.5t91.5 36.5q53 0 90 -36.5t37 -90.5q0 -53 -37 -89t-90 -36q-54 0 -91.5 35.5t-37.5 89.5z" />
<glyph unicode="&#xdd;" horiz-adv-x="1273" d="M8 1434h189l409 -727l412 727h188l-516 -895v-539h-166v539zM471 1571l174 258h184q-6 -7 -103.5 -119t-121.5 -139h-133z" />
<glyph unicode="&#xde;" horiz-adv-x="1257" d="M125 0v1395h166v-310q136 189 354 189q125 0 235 -64t176 -174.5t66 -238.5q0 -129 -66 -239.5t-176 -174.5t-235 -64q-228 0 -354 189v-508h-166zM297 803q0 -143 97.5 -243.5t236.5 -100.5q138 0 236 101t98 243t-98 243t-236 101q-139 0 -236.5 -100.5t-97.5 -243.5z " />
<glyph unicode="&#xdf;" horiz-adv-x="1118" d="M127 1071q0 26 3 54.5t12.5 69.5t25.5 77.5t45 74t67 65t95 44.5t127 17q80 0 145 -17t105.5 -43t71 -62t45 -67.5t23 -67.5t10 -54t1.5 -34q0 -62 -16.5 -114.5t-39 -83.5t-48.5 -53.5t-44 -31t-26 -9.5q15 -1 45 -15.5t71 -46t77 -73.5t61 -106t25 -136 q0 -221 -130 -351.5t-376 -130.5v134q21 0 45 2.5t59 11t67.5 22t66 38t57.5 57t39.5 82t15.5 108.5t-16 107t-41 79.5t-59 55t-65.5 35.5t-66.5 19t-55.5 9t-38.5 2v142q25 1 48.5 4.5t60 18.5t62 39t45 71t19.5 110q0 56 -21 97t-49 61.5t-65.5 32t-60 14t-43.5 2.5 q-136 0 -187 -115q-26 -58 -26 -141v-1075h-164q0 178 -1 535.5t-1 535.5z" />
<glyph unicode="&#xe0;" d="M68 498q0 233 139 380.5t360 147.5q123 0 216.5 -55.5t136.5 -132.5v163h151v-1001h-151v168q-43 -80 -136.5 -135.5t-216.5 -55.5q-220 0 -359.5 146.5t-139.5 374.5zM229 502q0 -165 95.5 -276t250.5 -111q146 0 238.5 95.5t106.5 244.5v94q-14 146 -107 242t-238 96 q-155 0 -250.5 -110.5t-95.5 -274.5zM332 1464h186l174 -262h-131z" />
<glyph unicode="&#xe1;" d="M68 498q0 233 139 380.5t360 147.5q123 0 216.5 -55.5t136.5 -132.5v163h151v-1001h-151v168q-43 -80 -136.5 -135.5t-216.5 -55.5q-220 0 -359.5 146.5t-139.5 374.5zM229 502q0 -165 95.5 -276t250.5 -111q146 0 238.5 95.5t106.5 244.5v94q-14 146 -107 242t-238 96 q-155 0 -250.5 -110.5t-95.5 -274.5zM434 1202l176 262h185l-228 -262h-133z" />
<glyph unicode="&#xe2;" d="M68 498q0 233 139 380.5t360 147.5q123 0 216.5 -55.5t136.5 -132.5v163h151v-1001h-151v168q-43 -80 -136.5 -135.5t-216.5 -55.5q-220 0 -359.5 146.5t-139.5 374.5zM229 502q0 -165 95.5 -276t250.5 -111q146 0 238.5 95.5t106.5 244.5v94q-14 146 -107 242t-238 96 q-155 0 -250.5 -110.5t-95.5 -274.5zM317 1186q53 65 140.5 168t122.5 145q51 -62 254 -313h-140l-112 151l-123 -151h-142z" />
<glyph unicode="&#xe3;" d="M68 498q0 233 139 380.5t360 147.5q123 0 216.5 -55.5t136.5 -132.5v163h151v-1001h-151v168q-43 -80 -136.5 -135.5t-216.5 -55.5q-220 0 -359.5 146.5t-139.5 374.5zM166 1272q103 125 201 125q34 0 178 -48.5t174 -48.5q17 0 30.5 3t28 13.5t20 15t24.5 24t24 24.5 l110 -51q-60 -82 -108.5 -117.5t-102.5 -35.5q-40 0 -190 51t-180 51q-13 0 -24.5 -1.5t-23 -7.5t-18 -9t-18.5 -14t-15.5 -14.5t-17 -18t-16.5 -17.5zM229 502q0 -165 95.5 -276t250.5 -111q146 0 238.5 95.5t106.5 244.5v94q-14 146 -107 242t-238 96 q-155 0 -250.5 -110.5t-95.5 -274.5z" />
<glyph unicode="&#xe4;" d="M68 498q0 233 139 380.5t360 147.5q123 0 216.5 -55.5t136.5 -132.5v163h151v-1001h-151v168q-43 -80 -136.5 -135.5t-216.5 -55.5q-220 0 -359.5 146.5t-139.5 374.5zM215 1378q0 54 37.5 91.5t91.5 37.5t91.5 -37.5t37.5 -91.5t-37.5 -90.5t-91.5 -36.5t-91.5 36.5 t-37.5 90.5zM229 502q0 -165 95.5 -276t250.5 -111q146 0 238.5 95.5t106.5 244.5v94q-14 146 -107 242t-238 96q-155 0 -250.5 -110.5t-95.5 -274.5zM690 1378q0 54 37 91.5t92 37.5q54 0 90.5 -37.5t36.5 -91.5t-36.5 -90.5t-90.5 -36.5q-55 0 -92 36.5t-37 90.5z" />
<glyph unicode="&#xe5;" d="M68 498q0 233 139 380.5t360 147.5q123 0 216.5 -55.5t136.5 -132.5v163h151v-1001h-151v168q-43 -80 -136.5 -135.5t-216.5 -55.5q-220 0 -359.5 146.5t-139.5 374.5zM229 502q0 -165 95.5 -276t250.5 -111q146 0 238.5 95.5t106.5 244.5v94q-14 146 -107 242t-238 96 q-155 0 -250.5 -110.5t-95.5 -274.5zM397 1339q0 68 52 118t122 50q71 0 122.5 -49.5t51.5 -118.5q0 -67 -51.5 -116t-122.5 -49q-69 0 -121.5 49t-52.5 116zM469 1339q0 -43 29.5 -73.5t72.5 -30.5t73 30.5t30 73.5q0 44 -30 75.5t-73 31.5t-72.5 -31.5t-29.5 -75.5z" />
<glyph unicode="&#xe6;" horiz-adv-x="1734" d="M61 283q0 137 121 227t357 90h172v111q0 54 -26.5 94t-68.5 60t-83.5 29t-83.5 9q-71 0 -163 -24t-130 -41q-9 20 -26 61t-26 62q2 1 21 8t35 12t43.5 13.5t54.5 14.5t59.5 12.5t68 9.5t69.5 3q78 0 143.5 -14.5t104 -34t68 -44.5t41 -40.5t17.5 -28.5q45 69 137 114.5 t218 45.5q256 0 378 -213q45 -77 68 -188l6 -45q2 -10 2 -33q0 -16 -4 -70h-766q1 -60 21.5 -121.5t57.5 -115t99.5 -87.5t137.5 -34q34 0 67.5 4.5t62.5 13.5t53 18t47 21.5t36.5 20t30 18.5t18.5 12q2 -2 82 -94q1 -1 -14.5 -16t-49 -37.5t-78.5 -44t-113.5 -36.5 t-143.5 -15q-108 0 -206 52.5t-153 141.5q-50 -90 -152 -150.5t-239 -60.5q-154 0 -262.5 90.5t-108.5 219.5zM199 283q0 -79 66 -133t165 -54q29 0 73.5 11.5t93 33t82.5 61t34 87.5v190h-211q-126 0 -214.5 -53t-88.5 -143zM874 602h609q0 21 -7 53.5t-28 77t-52.5 81.5 t-86.5 63t-123 26q-73 0 -131.5 -26t-91 -63t-54 -81.5t-28.5 -77t-7 -53.5z" />
<glyph unicode="&#xe7;" horiz-adv-x="929" d="M80 510q0 227 157.5 374.5t387.5 147.5q49 0 147 -20l39 -13v-153q-2 1 -32 15.5t-67.5 24t-82.5 9.5q-159 0 -273 -113t-114 -274q0 -158 114.5 -271.5t272.5 -113.5q76 0 139 24l43 17v-152q-93 -26 -186 -26q-150 0 -274.5 66t-197.5 187t-73 271zM293 -383 q20 32 85.5 138.5t100.5 164.5h213l-262 -303h-137z" />
<glyph unicode="&#xe8;" horiz-adv-x="1069" d="M61 510q0 242 124 379t337 137q217 0 336 -136t119 -384q0 -5 -1 -16.5t-1 -16.5h-760q0 -66 24 -129t66.5 -114t108.5 -82t143 -31q123 0 295 100l72 -115q-1 -1 -21.5 -14t-40.5 -24.5t-56.5 -27.5t-73 -27.5t-87.5 -20t-102 -8.5q-92 0 -177.5 35.5t-154 100.5 t-109.5 167.5t-41 226.5zM221 604h600q0 129 -90.5 210t-210.5 81q-73 0 -140 -32t-113 -100.5t-46 -158.5zM283 1464h184q8 -12 75 -111t101 -151h-131z" />
<glyph unicode="&#xe9;" horiz-adv-x="1069" d="M61 510q0 242 124 379t337 137q217 0 336 -136t119 -384q0 -5 -1 -16.5t-1 -16.5h-760q0 -66 24 -129t66.5 -114t108.5 -82t143 -31q123 0 295 100l72 -115q-1 -1 -21.5 -14t-40.5 -24.5t-56.5 -27.5t-73 -27.5t-87.5 -20t-102 -8.5q-92 0 -177.5 35.5t-154 100.5 t-109.5 167.5t-41 226.5zM221 604h600q0 129 -90.5 210t-210.5 81q-73 0 -140 -32t-113 -100.5t-46 -158.5zM371 1202l176 262h184q-185 -215 -227 -262h-133z" />
<glyph unicode="&#xea;" horiz-adv-x="1069" d="M61 510q0 242 124 379t337 137q217 0 336 -136t119 -384q0 -5 -1 -16.5t-1 -16.5h-760q0 -66 24 -129t66.5 -114t108.5 -82t143 -31q123 0 295 100l72 -115q-1 -1 -21.5 -14t-40.5 -24.5t-56.5 -27.5t-73 -27.5t-87.5 -20t-102 -8.5q-92 0 -177.5 35.5t-154 100.5 t-109.5 167.5t-41 226.5zM221 604h600q0 129 -90.5 210t-210.5 81q-73 0 -140 -32t-113 -100.5t-46 -158.5zM262 1186q53 66 141 169.5t121 143.5q51 -62 254 -313h-139l-113 151l-123 -151h-141z" />
<glyph unicode="&#xeb;" horiz-adv-x="1069" d="M61 510q0 242 124 379t337 137q217 0 336 -136t119 -384q0 -5 -1 -16.5t-1 -16.5h-760q0 -66 24 -129t66.5 -114t108.5 -82t143 -31q123 0 295 100l72 -115q-1 -1 -21.5 -14t-40.5 -24.5t-56.5 -27.5t-73 -27.5t-87.5 -20t-102 -8.5q-92 0 -177.5 35.5t-154 100.5 t-109.5 167.5t-41 226.5zM143 1378q0 54 37 91.5t92 37.5q54 0 90.5 -37.5t36.5 -91.5t-36.5 -90.5t-90.5 -36.5q-55 0 -92 36.5t-37 90.5zM221 604h600q0 129 -90.5 210t-210.5 81q-73 0 -140 -32t-113 -100.5t-46 -158.5zM616 1378q0 54 38.5 91.5t93.5 37.5 q54 0 90 -37.5t36 -91.5t-36 -90.5t-90 -36.5q-56 0 -94 36.5t-38 90.5z" />
<glyph unicode="&#xec;" horiz-adv-x="450" d="M0 1464h184l176 -262h-131q-99 109 -229 262zM143 0v1001h158v-1001h-158z" />
<glyph unicode="&#xed;" horiz-adv-x="518" d="M94 1202l176 262h185q-25 -28 -120.5 -138.5t-107.5 -123.5h-133zM184 0v1001h156v-1001h-156z" />
<glyph unicode="&#xee;" horiz-adv-x="544" d="M20 1186q31 40 129 156t134 157q18 -21 126 -155.5t128 -157.5h-140l-112 151l-123 -151h-142zM203 0v1001h157v-1001h-157z" />
<glyph unicode="&#xef;" horiz-adv-x="585" d="M-70 1378q0 54 37 91.5t92 37.5q54 0 90.5 -37.5t36.5 -91.5t-36.5 -90.5t-90.5 -36.5q-55 0 -92 36.5t-37 90.5zM217 0v1001h158v-1001h-158zM403 1378q0 54 38.5 91.5t93.5 37.5q54 0 90.5 -37.5t36.5 -91.5t-36.5 -90.5t-90.5 -36.5q-56 0 -94 36.5t-38 90.5z" />
<glyph unicode="&#xf0;" horiz-adv-x="1132" d="M72 426q0 82 30.5 162t85 144.5t138 104.5t180.5 40q124 0 210.5 -39.5t106.5 -73.5q-12 52 -37 99.5t-54.5 84t-72 70t-77 56.5t-84 45.5t-79.5 34.5t-75 25.5t-60 17.5t-45 11l-16 4q2 13 9 59.5t12 71.5q172 -21 309 -82t224.5 -144.5t145 -190t81.5 -213t24 -219.5 q0 -239 -139 -378t-361 -139q-83 0 -157 27t-127.5 72t-93 103t-59 121.5t-19.5 125.5zM221 428q0 -132 95.5 -225.5t230.5 -93.5t230 93.5t95 225.5q0 131 -95.5 226.5t-229.5 95.5t-230 -95.5t-96 -226.5z" />
<glyph unicode="&#xf1;" horiz-adv-x="1185" d="M129 0v1001h158v-141q47 70 133.5 118t206.5 48q198 0 302.5 -115t104.5 -327q0 -98 -1 -292t-1 -292h-158v563q0 72 -16.5 128t-43.5 92t-66 59t-80 32t-88 9t-94.5 -16t-92 -48.5t-74 -91t-32.5 -133.5v-594h-158zM166 1272q103 125 201 125q34 0 178 -48.5t174 -48.5 q17 0 30.5 3t28 13.5t20 15t24.5 24t24 24.5l110 -51q-60 -82 -108.5 -117.5t-102.5 -35.5q-40 0 -190 51t-180 51q-13 0 -24.5 -1.5t-23 -7.5t-18 -9t-18.5 -14t-15.5 -14.5t-17 -18t-16.5 -17.5z" />
<glyph unicode="&#xf2;" horiz-adv-x="1241" d="M61 506q0 150 72 270.5t195.5 187t273.5 66.5q149 0 275 -66.5t202 -187.5t76 -270q0 -152 -76 -274.5t-202 -189.5t-275 -67q-150 0 -273.5 67t-195.5 189.5t-72 274.5zM223 504q0 -159 114 -274t271 -115q160 0 273.5 114.5t113.5 274.5t-113.5 273.5t-273.5 113.5 q-157 0 -271 -114t-114 -273zM344 1464h184l177 -262h-132q-99 109 -229 262z" />
<glyph unicode="&#xf3;" horiz-adv-x="1241" d="M61 506q0 150 72 270.5t195.5 187t273.5 66.5q149 0 275 -66.5t202 -187.5t76 -270q0 -152 -76 -274.5t-202 -189.5t-275 -67q-150 0 -273.5 67t-195.5 189.5t-72 274.5zM223 504q0 -159 114 -274t271 -115q160 0 273.5 114.5t113.5 274.5t-113.5 273.5t-273.5 113.5 q-157 0 -271 -114t-114 -273zM451 1202l174 262h186q-27 -29 -126.5 -145t-100.5 -117h-133z" />
<glyph unicode="&#xf4;" horiz-adv-x="1241" d="M61 506q0 150 72 270.5t195.5 187t273.5 66.5q149 0 275 -66.5t202 -187.5t76 -270q0 -152 -76 -274.5t-202 -189.5t-275 -67q-150 0 -273.5 67t-195.5 189.5t-72 274.5zM223 504q0 -159 114 -274t271 -115q160 0 273.5 114.5t113.5 274.5t-113.5 273.5t-273.5 113.5 q-157 0 -271 -114t-114 -273zM334 1186q206 250 264 313q122 -153 252 -313h-139l-113 151l-123 -151h-141z" />
<glyph unicode="&#xf5;" horiz-adv-x="1241" d="M61 506q0 150 72 270.5t195.5 187t273.5 66.5q149 0 275 -66.5t202 -187.5t76 -270q0 -152 -76 -274t-202 -188.5t-275 -66.5q-150 0 -273.5 66.5t-195.5 188.5t-72 274zM184 1272q103 125 201 125q34 0 178 -48.5t174 -48.5q17 0 30.5 3t28 13.5t20 15t24.5 24t24 24.5 l111 -51q-60 -82 -108.5 -117.5t-102.5 -35.5q-40 0 -190.5 51t-180.5 51q-13 0 -24.5 -1.5t-23 -7.5t-18 -9t-18.5 -14t-15.5 -14.5t-17 -18t-16.5 -17.5zM223 504q0 -159 114 -274t271 -115q160 0 273.5 114.5t113.5 274.5t-113.5 273.5t-273.5 113.5q-157 0 -271 -114 t-114 -273z" />
<glyph unicode="&#xf6;" horiz-adv-x="1241" d="M61 506q0 150 72 270.5t195.5 187t273.5 66.5q149 0 275 -66.5t202 -187.5t76 -270q0 -152 -76 -274.5t-202 -189.5t-275 -67q-150 0 -273.5 67t-195.5 189.5t-72 274.5zM223 504q0 -159 114 -274t271 -115q160 0 273.5 114.5t113.5 274.5t-113.5 273.5t-273.5 113.5 q-157 0 -271 -114t-114 -273zM225 1378q0 54 37 91.5t92 37.5q54 0 90.5 -37.5t36.5 -91.5t-36.5 -90.5t-90.5 -36.5q-55 0 -92 36.5t-37 90.5zM698 1378q0 54 37.5 91.5t91.5 37.5t91.5 -37.5t37.5 -91.5t-37.5 -90.5t-91.5 -36.5t-91.5 36.5t-37.5 90.5z" />
<glyph unicode="&#xf7;" horiz-adv-x="1347" d="M145 473v109h1020v-109h-1020zM582 233q0 35 25.5 60.5t60.5 25.5t60.5 -25.5t25.5 -60.5t-25.5 -60.5t-60.5 -25.5t-60.5 25.5t-25.5 60.5zM582 821q0 35 25.5 60.5t60.5 25.5t60.5 -25.5t25.5 -60.5t-25.5 -60.5t-60.5 -25.5t-60.5 25.5t-25.5 60.5z" />
<glyph unicode="&#xf8;" horiz-adv-x="1386" d="M104 31l134 127q-121 146 -121 348q0 150 71.5 270.5t194.5 187t272 66.5q213 0 367 -129l137 129l72 -72l-135 -129q114 -143 114 -323q0 -152 -76.5 -274.5t-203 -189.5t-275.5 -67q-194 0 -344 115l-135 -129zM274 504q0 -132 80 -236l559 529q-112 94 -251 94 q-159 0 -273.5 -113.5t-114.5 -273.5zM424 197q106 -82 238 -82q160 0 274.5 114t114.5 275q0 118 -70 217z" />
<glyph unicode="&#xf9;" horiz-adv-x="1177" d="M113 422q0 98 1 290.5t1 288.5h153v-561q0 -321 299 -321q42 0 81.5 9t79.5 32t69.5 58t48 92t18.5 130v561h156v-1001h-156v131q-121 -154 -336 -154q-203 0 -309 121t-106 324zM324 1464h184l176 -262h-131z" />
<glyph unicode="&#xfa;" horiz-adv-x="1177" d="M113 422q0 98 1 290.5t1 288.5h153v-561q0 -321 299 -321q53 0 101 15t93.5 48.5t73.5 97.5t29 152v569h156v-1001h-156v131q-121 -154 -336 -154q-203 0 -309 121t-106 324zM420 1202l174 262h186q-25 -29 -101.5 -117.5t-127.5 -144.5h-131z" />
<glyph unicode="&#xfb;" horiz-adv-x="1177" d="M113 422q0 98 1 290.5t1 288.5h153v-561q0 -321 299 -321q42 0 81.5 9t79.5 32.5t69.5 59t48 92.5t18.5 130v559h156v-1001h-156v131q-121 -154 -336 -154q-203 0 -309 121t-106 324zM293 1186q50 62 136 162t128 151l252 -313h-139q-9 12 -49.5 67t-63.5 84l-123 -151 h-141z" />
<glyph unicode="&#xfc;" horiz-adv-x="1177" d="M113 422q0 98 1 290.5t1 288.5h153v-561q0 -321 299 -321q53 0 101 15t93.5 48.5t73.5 97.5t29 152v569h156v-1001h-156v131q-121 -154 -336 -154q-203 0 -309 121t-106 324zM141 1378q0 54 37 91.5t92 37.5q54 0 90.5 -37.5t36.5 -91.5t-36.5 -90.5t-90.5 -36.5 q-55 0 -92 36.5t-37 90.5zM700 1378q0 54 37.5 91.5t91.5 37.5t90.5 -37.5t36.5 -91.5t-36.5 -90.5t-90.5 -36.5t-91.5 36.5t-37.5 90.5z" />
<glyph unicode="&#xfd;" horiz-adv-x="1107" d="M43 1001h166l344 -808l319 808h164q-143 -364 -612 -1544h-172q32 80 105.5 266t113.5 285q-315 727 -428 993zM414 1202l176 262h184l-227 -262h-133z" />
<glyph unicode="&#xfe;" horiz-adv-x="1218" d="M115 -532v1943h155v-559q60 69 98 99q114 93 246 93q225 0 369.5 -147t144.5 -377q0 -233 -144.5 -380.5t-369.5 -147.5q-37 0 -72 6.5t-61.5 16t-54 26t-44.5 28.5t-39 33t-30.5 30t-25 28.5t-17.5 21.5v-714h-155zM272 518q0 -164 95 -275.5t251 -111.5t251.5 111.5 t95.5 275.5t-95.5 275.5t-251.5 111.5t-251 -111.5t-95 -275.5z" />
<glyph unicode="&#xff;" horiz-adv-x="1107" d="M43 1001h166l344 -808l319 808h164q-143 -364 -612 -1544h-172q32 80 105.5 266t113.5 285q-315 727 -428 993zM117 1378q0 54 37 91.5t92 37.5q54 0 90.5 -37.5t36.5 -91.5t-36.5 -90.5t-90.5 -36.5q-55 0 -92 36.5t-37 90.5zM676 1378q0 54 37 91.5t92 37.5 q54 0 90.5 -37.5t36.5 -91.5t-36.5 -90.5t-90.5 -36.5q-55 0 -92 36.5t-37 90.5z" />
<glyph unicode="&#x152;" horiz-adv-x="2066" d="M104 696q0 147 59.5 280.5t158.5 230t235 153.5t283 57q101 0 192 -26h819v-142h-659v-432h614v-143h-614v-533h659v-141h-821q-126 -23 -190 -23q-147 0 -283 56.5t-235 152.5t-158.5 229.5t-59.5 280.5zM272 696q0 -161 74 -295t205 -212t291 -78q99 0 200 36v1098 q-101 39 -200 39q-160 0 -291 -78t-205 -213t-74 -297z" />
<glyph unicode="&#x153;" horiz-adv-x="2015" d="M61 506q0 147 72 267.5t196.5 188.5t274.5 68q155 0 273.5 -71t187.5 -177q62 129 168 191.5t242 62.5q70 0 131 -18t102.5 -42.5t77.5 -64t55.5 -69t37.5 -71t22.5 -57t11.5 -38.5l6 -25l10 -86q0 -51 -2 -82q-63 -6 -366 -6q-400 0 -400 4q1 -59 22.5 -121t61.5 -117 t105.5 -90.5t144.5 -35.5q28 0 56.5 4t51 10t47 15.5t40.5 17.5t35.5 19.5t28 17.5t22 15.5t14.5 10.5l94 -96q-15 -11 -55 -29q-43 -45 -133.5 -83.5t-214.5 -38.5q-70 0 -144.5 26.5t-146 84.5t-113.5 138q-173 -252 -473 -252q-150 0 -274.5 69t-196.5 190.5t-72 269.5z M223 504q0 -161 115 -276t272 -115q160 0 274.5 115t114.5 276q0 160 -114.5 274.5t-274.5 114.5q-157 0 -272 -115t-115 -274zM1167 604q113 -2 605 -2q-1 23 -9.5 56.5t-30.5 78.5t-54 82.5t-86 63.5t-119 26q-71 0 -127.5 -26.5t-88.5 -64t-53.5 -82.5t-29 -78t-7.5 -54z " />
<glyph unicode="&#x178;" horiz-adv-x="1366" d="M45 1415h195l407 -719l410 719h194l-522 -895v-520h-164v520zM276 1698q0 54 37.5 90.5t92.5 36.5q54 0 90 -36.5t36 -90.5t-36 -89.5t-90 -35.5q-56 0 -93 35.5t-37 89.5zM745 1698q0 54 37.5 90.5t91.5 36.5t90.5 -36.5t36.5 -90.5t-36.5 -89.5t-90.5 -35.5t-91.5 35.5 t-37.5 89.5z" />
<glyph unicode="&#x2c6;" horiz-adv-x="768" d="M82 1526q85 100 262 311q10 -12 120.5 -149t129.5 -162h-137l-113 151l-121 -151h-141z" />
<glyph unicode="&#x2dc;" horiz-adv-x="1169" d="M137 1274q58 70 107 99.5t104 29.5q33 0 183.5 -50t181.5 -50q13 0 24.5 1.5t22 7t17.5 9t18 13.5t15.5 14.5t17.5 18.5t18 19l119 -55q-65 -86 -116.5 -123t-107.5 -37q-41 0 -198 53.5t-189 53.5q-16 0 -30.5 -4t-24 -7.5t-23 -15t-18.5 -16.5t-21 -22t-20 -21z" />
<glyph unicode="&#x2000;" horiz-adv-x="918" />
<glyph unicode="&#x2001;" horiz-adv-x="1837" />
<glyph unicode="&#x2002;" horiz-adv-x="918" />
<glyph unicode="&#x2003;" horiz-adv-x="1837" />
<glyph unicode="&#x2004;" horiz-adv-x="612" />
<glyph unicode="&#x2005;" horiz-adv-x="459" />
<glyph unicode="&#x2006;" horiz-adv-x="306" />
<glyph unicode="&#x2007;" horiz-adv-x="306" />
<glyph unicode="&#x2008;" horiz-adv-x="229" />
<glyph unicode="&#x2009;" horiz-adv-x="367" />
<glyph unicode="&#x200a;" horiz-adv-x="102" />
<glyph unicode="&#x2010;" horiz-adv-x="710" d="M145 467v127h396v-4q0 -4 -1 -12t-1 -11v-100h-394z" />
<glyph unicode="&#x2011;" horiz-adv-x="710" d="M145 467v127h396v-4q0 -4 -1 -12t-1 -11v-100h-394z" />
<glyph unicode="&#x2012;" horiz-adv-x="710" d="M145 467v127h396v-4q0 -4 -1 -12t-1 -11v-100h-394z" />
<glyph unicode="&#x2013;" horiz-adv-x="1042" d="M104 565v107h754v-107h-754z" />
<glyph unicode="&#x2014;" horiz-adv-x="1896" d="M125 543v108h1618v-108h-1618z" />
<glyph unicode="&#x2018;" horiz-adv-x="620" d="M125 1032q101 201 237 481l95 -43l-199 -495q-14 4 -68 27.5t-65 29.5z" />
<glyph unicode="&#x2019;" horiz-adv-x="610" d="M125 1018l197 495q30 -12 135 -57q-22 -47 -123.5 -250t-114.5 -231q-24 8 -94 43z" />
<glyph unicode="&#x201a;" horiz-adv-x="540" d="M82 -223l199 495q4 -2 40 -15.5t66 -25.5t37 -16q-192 -384 -238 -481q-9 3 -52.5 21t-51.5 22z" />
<glyph unicode="&#x201c;" horiz-adv-x="923" d="M125 922q30 64 118.5 243.5t118.5 237.5l95 -43l-199 -494q-13 5 -70 29.5t-63 26.5zM389 922l238 481l96 -43l-201 -496q-9 4 -38.5 17t-60 26t-34.5 15z" />
<glyph unicode="&#x201d;" horiz-adv-x="923" d="M125 907l199 496q14 -4 67.5 -27t67.5 -30q-4 -8 -110 -221t-130 -261zM389 907l201 496q95 -38 133 -57l-238 -482z" />
<glyph unicode="&#x201e;" horiz-adv-x="854" d="M125 -223l199 495q105 -42 135 -57q-12 -25 -67.5 -136t-105 -210.5t-67.5 -134.5q-24 8 -94 43zM389 -223l201 495l133 -57q-192 -384 -238 -481q-23 7 -96 43z" />
<glyph unicode="&#x2022;" horiz-adv-x="763" d="M125 915q0 103 68 170.5t172 67.5q100 0 165.5 -67.5t65.5 -170.5q0 -99 -66 -165t-165 -66q-104 0 -172 66t-68 165z" />
<glyph unicode="&#x2026;" horiz-adv-x="1224" d="M125 88q0 47 33 79t80 32t79.5 -32t32.5 -79q0 -46 -32.5 -79.5t-79.5 -33.5t-80 33.5t-33 79.5zM485 88q0 47 33 79t80 32q46 0 79.5 -32t33.5 -79q0 -46 -33.5 -79.5t-79.5 -33.5q-47 0 -80 33.5t-33 79.5zM854 88q0 47 33 79t80 32q46 0 78 -32t32 -79 q0 -46 -32.5 -79.5t-77.5 -33.5q-47 0 -80 33.5t-33 79.5z" />
<glyph unicode="&#x202f;" horiz-adv-x="367" />
<glyph unicode="&#x205f;" horiz-adv-x="459" />
<glyph unicode="&#x20ac;" horiz-adv-x="1165" d="M145 455v141h123q-6 50 -6 98q0 46 6 92h-123v142h156q71 217 260.5 352t429.5 135q-2 -51 -2 -151q-159 0 -297.5 -93t-206.5 -243h265v-142h-308q-8 -41 -8 -92q0 -48 6 -98h310v-141h-267q64 -149 198 -238.5t308 -89.5q0 -101 2 -150q-259 0 -441 130.5t-251 347.5 h-154z" />
<glyph unicode="&#x25fc;" horiz-adv-x="1003" d="M0 0v1004h1004v-1004h-1004z" />
<glyph unicode="&#xfb01;" horiz-adv-x="1075" d="M82 895v129h174v2v31q0 117 18 202.5t61.5 154t121.5 105t192 40.5v-144q-73 -3 -121 -28.5t-74 -78t-36 -119t-10 -165.5h491v-1024h-151v895h-342q0 -149 -1.5 -447.5t-1.5 -447.5h-145q0 13 1 39.5t1 40.5q0 45 -2 351t-2 464h-174z" />
<glyph unicode="&#xfb02;" horiz-adv-x="1064" d="M82 895v129h174v33q0 504 459 504h174v-1561h-154v895h-329q0 -149 -1.5 -447.5t-1.5 -447.5h-145v94q0 257 -4 801h-172zM408 1024h327v397q-181 0 -254 -93.5t-73 -303.5z" />
</font>
</defs>
</svg>
